<svg width="294" height="337" viewBox="0 0 294 337" fill="none" xmlns="http://www.w3.org/2000/svg">
<path d="M50.0304 48.1585C50.0304 48.1585 129.424 14.6135 195.97 91.2407C195.97 91.2407 171.589 176.002 169.035 181.854C166.445 187.733 153.719 186.45 129.875 178.752C106.031 171.055 68.193 140.539 23.0471 138.891C23.0471 138.891 32.0939 102.299 67.5508 92.786C67.5508 92.786 69.0415 68.5415 50.0304 48.1585Z" fill="#8CFAAD"/>
<path d="M136.174 155.252C134.913 161.311 147.247 166.411 157.267 170.254C166.504 173.833 169.973 174.933 169.04 181.822L178.509 158.375C178.509 158.375 155.864 146.467 147.638 146.108C139.443 145.753 137.439 149.163 136.178 155.221L136.174 155.252Z" fill="#7EBE91"/>
<path d="M232.251 183.402L188.781 319.662C187.733 322.981 189.36 326.536 192.544 327.88C196.145 329.406 200.298 327.546 201.527 323.811L247.513 185.469L232.22 183.398L232.251 183.402Z" fill="white" fill-opacity="0.53"/>
<path d="M244.877 193.103C244.877 193.103 154.375 150.01 146.843 148.707C137.285 147.035 136.172 155.253 136.172 155.253C136.172 155.253 175.832 39.683 180.508 31.4124C185.184 23.1418 191.264 17.7359 203.653 24.7626C216.041 31.7893 289.803 64.9058 289.803 64.9058L244.877 193.103Z" fill="#A7FFC1"/>
</svg>
