<svg width="22" height="26" viewBox="0 0 22 26" fill="none" xmlns="http://www.w3.org/2000/svg">
<g id="Group">
<path id="Vector" d="M1.59912 4.45142C1.59912 4.45142 7.71688 0.830647 14.0044 6.35695C14.0044 6.35695 12.95 13.5548 12.806 14.0614C12.6594 14.5706 11.6051 14.6066 9.57099 14.2414C7.53688 13.8762 4.1064 11.801 0.398193 12.1661C0.398193 12.1661 0.732498 9.0751 3.52522 7.90504C3.52522 7.90504 3.37864 5.90693 1.59912 4.45142Z" fill="#8CFAAD"/>
<path id="Vector_2" d="M9.82535 12.251C9.78935 12.7602 10.854 13.0405 11.7155 13.2436C12.5101 13.4339 12.8058 13.4854 12.8058 14.0588L13.3201 12.0376C13.3201 12.0376 11.3374 11.3149 10.6611 11.3767C9.98736 11.4384 9.86135 11.7393 9.82535 12.2484V12.251Z" fill="#7EBE91"/>
<path id="Vector_3" d="M17.9904 13.488L15.946 25.1063C15.8971 25.3892 16.0694 25.6618 16.3446 25.7364C16.6558 25.8212 16.9746 25.6232 17.0338 25.3043L19.2608 13.488H17.9878H17.9904Z" fill="white" fill-opacity="0.53"/>
<path id="Vector_4" d="M19.1294 14.1411C19.1294 14.1411 11.2552 11.6209 10.6252 11.5978C9.82544 11.5669 9.82544 12.251 9.82544 12.251C9.82544 12.251 11.7875 2.36586 12.0781 1.63811C12.3687 0.910353 12.8059 0.401182 13.8962 0.838349C14.9866 1.27552 21.3821 3.16562 21.3821 3.16562L19.1294 14.1411Z" fill="#A7FFC1"/>
</g>
</svg>
