<svg width="126" height="33" viewBox="0 0 126 33" fill="none" xmlns="http://www.w3.org/2000/svg">
<path d="M104.999 4.71137C104.999 4.71137 111.117 1.0906 117.404 6.6169C117.404 6.6169 116.35 13.8147 116.206 14.3213C116.059 14.8305 115.005 14.8665 112.971 14.5013C110.937 14.1362 107.506 12.0609 103.798 12.4261C103.798 12.4261 104.132 9.33505 106.925 8.16499C106.925 8.16499 106.779 6.16688 104.999 4.71137Z" fill="#8CFAAD"/>
<path d="M113.225 12.5109C113.189 13.0201 114.254 13.3004 115.115 13.5035C115.91 13.6938 116.206 13.7452 116.206 14.3187L116.72 12.2974C116.72 12.2974 114.737 11.5748 114.061 11.6366C113.387 11.6983 113.261 11.9991 113.225 12.5083V12.5109Z" fill="#7EBE91"/>
<path d="M121.39 13.7478L119.346 25.3662C119.297 25.649 119.469 25.9216 119.745 25.9962C120.056 26.0811 120.375 25.883 120.434 25.5642L122.661 13.7478H121.388H121.39Z" fill="white" fill-opacity="0.53"/>
<path d="M122.529 14.4009C122.529 14.4009 114.655 11.8808 114.025 11.8576C113.225 11.8268 113.225 12.5108 113.225 12.5108C113.225 12.5108 115.187 2.62569 115.478 1.89793C115.769 1.17018 116.206 0.661009 117.296 1.09818C118.386 1.53534 124.782 3.42545 124.782 3.42545L122.529 14.4009Z" fill="#A7FFC1"/>
<path d="M20.096 19.7582C19.1186 23.1932 15.7395 25.5949 11.8297 25.5949C6.6912 25.5949 2.78146 21.5455 2.78146 16.1836C2.78146 10.7937 6.60742 6.77228 11.718 6.77228C15.4881 6.77228 18.7835 9.03434 19.8726 12.3855L15.5719 14.0612C15.153 12.0504 13.5891 10.682 11.718 10.682C9.23253 10.682 7.24973 13.1116 7.24973 16.1836C7.24973 19.2834 9.20461 21.5734 11.8297 21.5734C13.8125 21.5734 15.3485 20.1492 15.6836 17.9709L20.096 19.7582ZM22.215 6.2696H26.1247V25.2598H22.215V6.2696ZM29.033 11.2964H32.9428V25.2598H29.033V11.2964ZM28.5862 7.61008C28.5862 6.18582 29.5915 5.15253 30.9879 5.15253C32.3842 5.15253 33.3896 6.18582 33.3896 7.61008C33.3896 9.03434 32.3842 10.0676 30.9879 10.0676C29.5915 10.0676 28.5862 9.03434 28.5862 7.61008ZM52.1603 17.2727C52.1603 15.7647 51.3783 14.7593 50.2054 14.7593C48.8649 14.7593 47.9154 16.016 47.9154 17.8313V25.2598H44.0615V17.3844C44.0615 15.7926 43.2796 14.7593 42.0508 14.7593C40.6545 14.7593 39.6491 16.0439 39.6491 17.8313V25.2598H35.7394V11.2964H38.7554L39.5095 13.2513C40.0959 11.9108 41.6319 10.9613 43.3913 10.9613C45.1227 10.9613 46.4911 11.8829 47.2452 13.4747C47.9713 11.9387 49.6469 10.9613 51.4342 10.9613C54.1431 10.9613 56.07 13.2233 56.07 16.4349V25.2598H52.1603V17.2727ZM66.2999 18.6691C66.2999 18.7249 65.881 18.7808 65.3504 18.8925L63.228 19.3393C62.446 19.5069 61.9992 20.0095 61.9992 20.6798C61.9992 21.4338 62.5577 21.9644 63.5631 21.9644C65.0153 21.9644 66.2999 20.7915 66.2999 18.8925V18.6691ZM57.866 21.4617C57.866 19.6744 59.2624 18.0826 61.2172 17.6637L65.7972 16.7142C66.1323 16.6583 66.2999 16.4349 66.2999 16.2115C66.2999 15.2341 65.49 14.5359 64.345 14.5359C63.228 14.5359 62.3343 15.2899 62.2226 16.3232L58.4246 14.9827C59.0669 12.6369 61.4686 10.9613 64.1775 10.9613C67.6683 10.9613 70.2096 13.1675 70.2096 16.2115V22.4671L70.2655 25.2598H67.1936L66.5792 23.64C65.6855 24.8409 64.2054 25.5949 62.446 25.5949C59.793 25.5949 57.866 23.8634 57.866 21.4617ZM72.8867 6.2696H76.7964V25.2598H72.8867V6.2696ZM79.7047 6.2696H83.6145V25.2598H79.7047V6.2696ZM86.5228 11.2964H90.4325V25.2598H86.5228V11.2964ZM86.0759 7.61008C86.0759 6.18582 87.0813 5.15253 88.4776 5.15253C89.874 5.15253 90.8793 6.18582 90.8793 7.61008C90.8793 9.03434 89.874 10.0676 88.4776 10.0676C87.0813 10.0676 86.0759 9.03434 86.0759 7.61008ZM99.5406 25.5949C95.4912 25.5949 92.5589 22.5229 92.5589 18.2781C92.5589 14.0332 95.4633 10.9613 99.4847 10.9613C103.394 10.9613 106.243 14.0332 106.243 18.2781C106.243 18.6691 106.215 18.9483 106.187 19.1717H96.6082C96.9154 20.8473 98.0884 21.9644 99.5964 21.9644C100.741 21.9644 101.803 21.2942 102.11 20.3447L106.02 21.5734C105.126 23.9193 102.557 25.5949 99.5406 25.5949ZM96.692 16.9376H102.166C101.886 15.5971 100.797 14.5918 99.4568 14.5918C98.1163 14.5918 97.083 15.5413 96.692 16.9376ZM97.5857 9.5091L98.982 5.26424H103.953L101.104 9.6208L97.5857 9.5091ZM112.054 20.1771C112.11 21.4059 113.115 22.2995 114.4 22.2995C115.377 22.2995 116.076 21.7689 116.076 21.0149C116.076 18.5574 108.256 19.451 108.256 14.871C108.256 12.4693 110.462 10.9054 113.786 10.9054C117.332 10.9054 119.874 12.609 119.985 14.9827L115.629 15.8764C115.629 14.7593 114.903 14.1449 113.674 14.1449C112.696 14.1449 112.166 14.5918 112.166 15.2061C112.166 17.6637 120.209 16.6583 120.209 21.2383C120.209 23.8076 117.639 25.6507 114.065 25.6507C110.49 25.6507 107.698 23.9193 107.474 21.1266L112.054 20.1771Z" fill="#011D18"/>
</svg>
