<svg width="126" height="34" viewBox="0 0 126 34" fill="none" xmlns="http://www.w3.org/2000/svg">
<g clip-path="url(#clip0_5_5525)">
<path d="M105.599 5.45142C105.599 5.45142 111.717 1.83065 118.004 7.35695C118.004 7.35695 116.95 14.5548 116.806 15.0614C116.659 15.5706 115.605 15.6066 113.571 15.2414C111.537 14.8762 108.106 12.801 104.398 13.1661C104.398 13.1661 104.732 10.0751 107.525 8.90504C107.525 8.90504 107.379 6.90693 105.599 5.45142Z" fill="#8CFAAD"/>
<path d="M113.825 13.251C113.789 13.7602 114.854 14.0405 115.715 14.2436C116.51 14.4339 116.806 14.4854 116.806 15.0588L117.32 13.0376C117.32 13.0376 115.337 12.3149 114.661 12.3767C113.987 12.4384 113.861 12.7393 113.825 13.2484V13.251Z" fill="#7EBE91"/>
<path d="M121.99 14.488L119.946 26.1063C119.897 26.3892 120.069 26.6618 120.345 26.7364C120.656 26.8212 120.975 26.6232 121.034 26.3043L123.261 14.488H121.988H121.99Z" fill="white" fill-opacity="0.53"/>
<path d="M123.129 15.1411C123.129 15.1411 115.255 12.6209 114.625 12.5978C113.825 12.5669 113.825 13.251 113.825 13.251C113.825 13.251 115.788 3.36586 116.078 2.63811C116.369 1.91035 116.806 1.40118 117.896 1.83835C118.987 2.27552 125.382 4.16562 125.382 4.16562L123.129 15.1411Z" fill="#A7FFC1"/>
<path d="M20.6961 20.4984C19.7187 23.9334 16.3396 26.3351 12.4298 26.3351C7.2913 26.3351 3.38156 22.2857 3.38156 16.9238C3.38156 11.534 7.20752 7.51251 12.3181 7.51251C16.0882 7.51251 19.3836 9.77458 20.4727 13.1258L16.172 14.8014C15.7531 12.7907 14.1892 11.4223 12.3181 11.4223C9.83263 11.4223 7.84983 13.8519 7.84983 16.9238C7.84983 20.0237 9.8047 22.3137 12.4298 22.3137C14.4126 22.3137 15.9486 20.8894 16.2837 18.7111L20.6961 20.4984ZM22.8151 7.00983H26.7248V26H22.8151V7.00983ZM29.6331 12.0366H33.5428V26H29.6331V12.0366ZM29.1863 8.35031C29.1863 6.92605 30.1916 5.89276 31.588 5.89276C32.9843 5.89276 33.9897 6.92605 33.9897 8.35031C33.9897 9.77458 32.9843 10.8079 31.588 10.8079C30.1916 10.8079 29.1863 9.77458 29.1863 8.35031ZM52.7604 18.013C52.7604 16.5049 51.9784 15.4996 50.8055 15.4996C49.465 15.4996 48.5155 16.7563 48.5155 18.5715V26H44.6616V18.1247C44.6616 16.5328 43.8797 15.4996 42.6509 15.4996C41.2546 15.4996 40.2492 16.7842 40.2492 18.5715V26H36.3394V12.0366H39.3555L40.1096 13.9915C40.696 12.651 42.232 11.7015 43.9914 11.7015C45.7228 11.7015 47.0912 12.6231 47.8453 14.2149C48.5714 12.679 50.247 11.7015 52.0343 11.7015C54.7432 11.7015 56.6701 13.9636 56.6701 17.1752V26H52.7604V18.013ZM66.9 19.4093C66.9 19.4651 66.4811 19.521 65.9505 19.6327L63.8281 20.0795C63.0461 20.2471 62.5993 20.7498 62.5993 21.42C62.5993 22.174 63.1578 22.7046 64.1632 22.7046C65.6154 22.7046 66.9 21.5317 66.9 19.6327V19.4093ZM58.4661 22.202C58.4661 20.4147 59.8625 18.8228 61.8173 18.4039L66.3973 17.4544C66.7324 17.3986 66.9 17.1752 66.9 16.9517C66.9 15.9743 66.0901 15.2761 64.9451 15.2761C63.8281 15.2761 62.9344 16.0302 62.8227 17.0634L59.0247 15.723C59.667 13.3771 62.0687 11.7015 64.7776 11.7015C68.2684 11.7015 70.8097 13.9077 70.8097 16.9517V23.2073L70.8656 26H67.7937L67.1793 24.3803C66.2856 25.5811 64.8055 26.3351 63.0461 26.3351C60.3931 26.3351 58.4661 24.6037 58.4661 22.202ZM73.4868 7.00983H77.3965V26H73.4868V7.00983ZM80.3048 7.00983H84.2146V26H80.3048V7.00983ZM87.1229 12.0366H91.0326V26H87.1229V12.0366ZM86.676 8.35031C86.676 6.92605 87.6814 5.89276 89.0777 5.89276C90.4741 5.89276 91.4794 6.92605 91.4794 8.35031C91.4794 9.77458 90.4741 10.8079 89.0777 10.8079C87.6814 10.8079 86.676 9.77458 86.676 8.35031ZM100.141 26.3351C96.0913 26.3351 93.159 23.2632 93.159 19.0183C93.159 14.7735 96.0634 11.7015 100.085 11.7015C103.995 11.7015 106.843 14.7735 106.843 19.0183C106.843 19.4093 106.815 19.6886 106.787 19.912H97.2083C97.5155 21.5876 98.6885 22.7046 100.197 22.7046C101.342 22.7046 102.403 22.0344 102.71 21.0849L106.62 22.3137C105.726 24.6595 103.157 26.3351 100.141 26.3351ZM97.2921 17.6778H102.766C102.486 16.3374 101.397 15.332 100.057 15.332C98.7164 15.332 97.6831 16.2815 97.2921 17.6778ZM98.1858 10.2493L99.5821 6.00447H104.553L101.705 10.361L98.1858 10.2493ZM112.654 20.9173C112.71 22.1461 113.715 23.0398 115 23.0398C115.978 23.0398 116.676 22.5092 116.676 21.7551C116.676 19.2976 108.856 20.1912 108.856 15.6113C108.856 13.2096 111.062 11.6457 114.386 11.6457C117.932 11.6457 120.474 13.3492 120.585 15.723L116.229 16.6166C116.229 15.4996 115.503 14.8852 114.274 14.8852C113.297 14.8852 112.766 15.332 112.766 15.9464C112.766 18.4039 120.809 17.3986 120.809 21.9786C120.809 24.5478 118.24 26.391 114.665 26.391C111.09 26.391 108.298 24.6595 108.074 21.8668L112.654 20.9173Z" fill="white"/>
</g>
<defs>
<clipPath id="clip0_5_5525">
<rect width="125.315" height="32.5196" fill="white" transform="translate(0.600098 0.740173)"/>
</clipPath>
</defs>
</svg>
