<svg width="1512" height="713" viewBox="0 0 1512 713" fill="none" xmlns="http://www.w3.org/2000/svg">
<mask id="mask0_8_6519" style="mask-type:luminance" maskUnits="userSpaceOnUse" x="-1607" y="-559" width="3567" height="2051">
<path d="M-1606.01 -558.121H1959.87V1491.12H-1606.01V-558.121Z" fill="white"/>
</mask>
<g mask="url(#mask0_8_6519)">
<g style="mix-blend-mode:luminosity" opacity="0.1">
<path d="M2150.61 -53.2563C2139.91 -86.8707 1773.86 -312.329 1723.18 -300.49C1672.44 -288.699 1419.41 182.044 1360.17 194.358C1300.93 206.72 1178.45 34.3692 1101 30.7557C1023.6 27.0948 894.798 294.726 802.656 329.529C710.514 364.379 535.453 308.989 460.95 351.304C386.447 393.619 57.5303 481.435 57.5303 481.435L-200.116 879.958L2401.31 714.263L2150.61 -53.2563Z" fill="#CAE3DD"/>
<path d="M-1905.08 2.41861C-1909.98 -83.1624 -1451.41 -273.913 -1374.38 -256.797C-1297.36 -239.681 -941.914 209.905 -901.358 213.138C-860.802 216.371 -372.895 -211.629 -304.43 -203.071C-235.965 -194.513 294.732 507.394 337.57 503.115C380.361 498.836 491.664 421.813 534.454 438.93C577.245 456.046 632.825 533.069 712.035 541.627C791.245 550.185 988.129 378.975 1056.59 387.533C1125.06 396.091 1510.27 698.62 1510.27 698.62L-415.686 892.557L-2033.5 590.265L-1905.08 2.3235V2.41861Z" fill="#A7C2C5"/>
<mask id="mask1_8_6519" style="mask-type:luminance" maskUnits="userSpaceOnUse" x="-2034" y="-258" width="3545" height="1151">
<path d="M-1905.08 2.41861C-1909.98 -83.1624 -1451.41 -273.913 -1374.38 -256.797C-1297.36 -239.681 -941.914 209.905 -901.358 213.138C-860.802 216.371 -372.895 -211.629 -304.43 -203.071C-235.965 -194.513 294.732 507.394 337.57 503.115C380.361 498.836 491.664 421.813 534.454 438.93C577.245 456.046 632.825 533.069 712.035 541.627C791.245 550.185 988.129 378.975 1056.59 387.533C1125.06 396.091 1510.27 698.62 1510.27 698.62L-415.686 892.557L-2033.5 590.265L-1905.08 2.3235V2.41861Z" fill="white"/>
</mask>
<g mask="url(#mask1_8_6519)">
<path d="M447.304 507.394C453.675 508.298 460.094 509.201 466.465 510.105C450.109 537.253 428.904 561.501 404.133 581.374C372.611 587.65 343.656 605.955 324.543 631.772C347.127 598.586 358.3 557.745 355.828 517.712C349.98 530.359 336.572 539.107 322.689 539.345C337.332 473.542 390.06 411.591 455.577 391.908C594.694 350.163 456.575 508.726 447.304 507.442V507.394Z" fill="#95B4B5"/>
<path d="M929.743 489.375C950.711 480.484 972.439 473.495 994.642 468.502C985.656 486.807 971.773 502.64 954.8 513.86C963.548 515.857 972.344 517.807 981.092 519.804C952.47 529.027 925.417 542.91 901.264 560.787C910.82 565.304 921.851 566.635 932.216 564.639C884.148 602.722 830.612 633.912 773.748 656.923C806.792 653.928 839.646 648.698 871.929 641.234C816.253 649.697 760.626 658.16 704.951 666.575C739.326 628.254 768.328 585.13 790.959 538.917C805.128 510.009 816.871 479.676 834.843 452.955C884.053 379.593 995.688 326.913 1083.6 345.884C1053.74 385.727 975.529 470.024 929.648 489.422L929.743 489.375Z" fill="#95B4B5"/>
</g>
<path d="M1066.39 677.701C1081.84 654.642 1099.95 633.389 1120.35 614.514C1101.81 623.024 1083.27 631.582 1064.68 640.093C1087.97 620.79 1104.99 593.974 1112.55 564.687C1099.62 573.578 1085.83 581.232 1071.47 587.556C1078.61 579.045 1085.31 570.535 1093.54 563.26C1097.39 559.837 1100.33 556.556 1102.66 551.802C1103.42 550.28 1105.85 539.583 1106.56 539.25C1096.15 543.767 1085.17 547.095 1073.95 549.092C1087.83 541.818 1100.19 531.643 1110.03 519.424C1116.07 511.912 1121.4 502.783 1120.3 493.227C1109.23 497.981 1093.44 502.545 1084.64 510.913C1100.67 495.746 1114.17 478.012 1124.53 458.566C1112.89 464.89 1101.05 470.928 1089.11 476.586C1111.32 457.092 1128.1 431.513 1137.13 403.366C1128.67 411.021 1119.35 419.009 1108.04 420.245C1127.1 401.56 1136.42 375.315 1144.88 350.021C1141.46 351.923 1139.13 355.251 1136.52 358.151C1133.85 361.004 1130.38 363.666 1126.48 363.381C1140.75 346.503 1150.3 325.63 1153.73 303.807C1157.2 325.63 1166.71 346.503 1180.97 363.381C1177.07 363.666 1173.55 361.004 1170.94 358.151C1168.28 355.298 1165.95 351.97 1162.57 350.021C1171.03 375.362 1180.31 401.607 1199.42 420.245C1188.05 419.056 1178.78 411.021 1170.32 403.366C1179.35 431.513 1196.14 457.092 1218.34 476.586C1206.36 470.88 1194.57 464.89 1182.92 458.566C1193.28 478.012 1206.79 495.794 1222.81 510.913C1214.01 502.593 1199.23 498.742 1188.39 493.607C1195.52 503.211 1201.22 513.861 1208.93 523.037C1215.25 530.597 1222.76 537.015 1230.27 543.386C1227.52 541.009 1216.25 540.629 1212.21 539.06C1209.07 537.824 1200.42 531.453 1197.52 533.925C1193.81 537.063 1214.2 557.793 1216.87 562.357C1222.05 571.343 1225.52 582.849 1235.98 587.461C1221.62 581.137 1207.83 573.435 1194.9 564.592C1202.46 593.927 1219.43 620.695 1242.78 639.998C1224.24 631.487 1205.69 622.929 1187.1 614.419C1207.45 633.294 1225.62 654.547 1241.07 677.606H1066.67L1066.39 677.701Z" fill="#142A38"/>
<path d="M451.868 863.317C467.32 840.258 485.435 819.005 505.832 800.13C487.289 808.64 468.746 817.198 450.156 825.709C473.453 806.406 490.474 779.59 497.986 750.302C485.054 759.193 471.266 766.848 456.908 773.172C464.04 764.661 470.743 756.151 478.968 748.876C482.82 745.453 485.768 742.172 488.097 737.418C488.858 735.896 491.283 725.199 491.996 724.866C481.536 729.383 470.601 732.711 459.38 734.708C473.263 727.433 485.625 717.259 495.467 705.04C501.505 697.527 506.83 688.399 505.736 678.842C494.658 683.597 478.873 688.161 470.078 696.529C486.1 681.362 499.603 663.628 509.968 644.182C498.319 650.506 486.481 656.544 474.547 662.201C496.75 642.708 513.534 617.129 522.567 588.982C514.104 596.637 504.785 604.625 493.47 605.861C512.535 587.176 521.854 560.931 530.317 535.637C526.894 537.538 524.564 540.867 521.949 543.767C519.287 546.62 515.816 549.282 511.917 548.997C526.181 532.118 535.737 511.246 539.161 489.423C542.631 511.246 552.14 532.118 566.404 548.997C562.505 549.282 558.987 546.62 556.372 543.767C553.709 540.914 551.38 537.586 548.004 535.637C556.467 560.978 565.738 587.223 584.851 605.861C573.488 604.672 564.217 596.637 555.754 588.982C564.787 617.129 581.571 642.708 603.774 662.201C591.793 656.496 580.002 650.506 568.353 644.182C578.718 663.628 592.221 681.41 608.243 696.529C599.448 688.209 584.709 684.358 573.821 679.223C580.953 688.827 586.658 699.477 594.36 708.653C600.684 716.213 608.196 722.631 615.708 729.002C612.95 726.625 601.682 726.245 597.641 724.676C594.503 723.44 585.85 717.069 582.95 719.541C579.241 722.679 599.638 743.408 602.3 747.973C607.483 756.959 610.954 768.465 621.413 773.077C607.055 766.753 593.267 759.051 580.335 750.207C587.894 779.543 604.868 806.311 628.212 825.614C609.67 817.103 591.127 808.545 572.537 800.035C592.886 818.91 611.049 840.163 626.501 863.222H452.106L451.868 863.317Z" fill="#142A38"/>
<path d="M812.022 721.633C824.384 703.138 838.98 686.069 855.288 670.95C840.406 677.796 825.525 684.643 810.643 691.442C829.328 675.942 842.974 654.452 849.012 630.964C838.647 638.096 827.569 644.229 816.063 649.317C821.769 642.47 827.189 635.671 833.75 629.823C836.84 627.066 839.17 624.451 841.072 620.647C841.69 619.411 843.639 610.853 844.21 610.615C835.842 614.229 827.046 616.891 818.06 618.508C829.186 612.66 839.122 604.529 847.015 594.735C851.865 588.697 856.096 581.375 855.24 573.72C846.349 577.524 833.702 581.185 826.618 587.889C839.455 575.717 850.296 561.501 858.616 545.906C849.297 550.994 839.788 555.796 830.184 560.36C847.966 544.718 861.469 524.178 868.696 501.642C861.897 507.775 854.432 514.194 845.351 515.145C860.661 500.168 868.125 479.106 874.876 458.804C872.119 460.325 870.265 462.988 868.173 465.318C866.033 467.6 863.228 469.739 860.09 469.501C871.548 455.951 879.203 439.215 881.961 421.719C884.718 439.263 892.373 455.951 903.831 469.501C900.693 469.739 897.888 467.6 895.749 465.318C893.609 463.035 891.755 460.325 889.045 458.804C895.844 479.106 903.261 500.168 918.57 515.145C909.442 514.194 902.025 507.728 895.226 501.642C902.453 524.226 915.955 544.718 933.737 560.36C924.133 555.796 914.672 550.994 905.305 545.906C913.626 561.501 924.466 575.765 937.303 587.889C930.219 581.185 918.38 578.094 909.727 574.005C915.48 581.708 920.044 590.266 926.178 597.635C931.217 603.674 937.255 608.856 943.294 613.943C941.059 612.041 932.073 611.756 928.792 610.473C926.273 609.474 919.331 604.339 917.001 606.384C914.053 608.904 930.409 625.497 932.501 629.205C936.637 636.385 939.443 645.656 947.811 649.364C936.305 644.277 925.227 638.144 914.862 631.012C920.9 654.547 934.546 676.037 953.231 691.489C938.349 684.643 923.467 677.796 908.586 670.997C924.941 686.117 939.49 703.185 951.852 721.68H811.927L812.022 721.633Z" fill="#142A38"/>
<path d="M910.012 640.711C922.374 622.216 936.97 605.147 953.278 590.028C938.396 596.875 923.515 603.721 908.633 610.52C927.318 595.02 940.964 573.53 947.002 550.043C936.637 557.174 925.559 563.308 914.053 568.395C919.759 561.549 925.179 554.75 931.74 548.902C934.83 546.144 937.16 543.529 939.062 539.726C939.68 538.489 941.629 529.931 942.2 529.693C933.832 533.307 925.036 535.969 916.05 537.586C927.176 531.738 937.113 523.608 945.005 513.813C949.855 507.775 954.086 500.453 953.23 492.799C944.34 496.602 931.692 500.263 924.608 506.967C937.445 494.795 948.286 480.579 956.606 464.985C947.24 470.072 937.778 474.874 928.174 479.438C945.956 463.796 959.459 443.257 966.686 420.72C959.887 426.854 952.422 433.272 943.341 434.223C958.651 419.246 966.115 398.184 972.866 377.882C970.109 379.404 968.255 382.066 966.163 384.396C964.023 386.678 961.218 388.818 958.08 388.58C969.538 375.029 977.193 358.294 979.951 340.797C982.708 358.341 990.363 375.029 1001.82 388.58C998.684 388.818 995.878 386.678 993.739 384.396C991.599 382.114 989.745 379.404 987.035 377.882C993.834 398.184 1001.25 419.246 1016.56 434.223C1007.43 433.272 1000.01 426.806 993.216 420.72C1000.44 443.304 1013.95 463.796 1031.73 479.438C1022.12 474.874 1012.66 470.072 1003.3 464.985C1011.62 480.579 1022.46 494.843 1035.29 506.967C1028.21 500.263 1016.37 497.173 1007.72 493.084C1013.47 500.786 1018.03 509.344 1024.17 516.714C1029.21 522.752 1035.25 527.934 1041.28 533.022C1039.05 531.12 1030.06 530.835 1026.78 529.551C1024.26 528.552 1017.32 523.418 1014.99 525.462C1012.04 527.982 1028.4 544.575 1030.49 548.284C1034.63 555.463 1037.43 564.734 1045.8 568.443C1034.29 563.355 1023.22 557.222 1012.85 550.09C1018.89 573.625 1032.54 595.115 1051.22 610.568C1036.34 603.721 1021.46 596.875 1006.58 590.076C1022.93 605.195 1037.48 622.264 1049.84 640.759H909.917L910.012 640.711Z" fill="#142A38"/>
<path d="M981.329 721.871C993.691 703.376 1008.29 686.307 1024.6 671.188C1009.71 678.034 994.832 684.881 979.951 691.68C998.636 676.18 1012.28 654.69 1018.32 631.202C1007.95 638.334 996.877 644.467 985.371 649.555C991.076 642.708 996.496 635.909 1003.06 630.061C1006.15 627.304 1008.48 624.689 1010.38 620.885C1011 619.649 1012.95 611.091 1013.52 610.853C1005.15 614.466 996.354 617.129 987.368 618.746C998.493 612.897 1008.43 604.767 1016.32 594.973C1021.17 588.935 1025.4 581.613 1024.55 573.958C1015.66 577.762 1003.01 581.423 995.926 588.126C1008.76 575.955 1019.6 561.739 1027.92 546.144C1018.6 551.232 1009.1 556.034 999.492 560.598C1017.27 544.956 1030.78 524.416 1038 501.88C1031.2 508.013 1023.74 514.432 1014.66 515.383C1029.97 500.406 1037.43 479.343 1044.18 459.042C1041.43 460.563 1039.57 463.226 1037.48 465.555C1035.34 467.838 1032.54 469.977 1029.4 469.739C1040.86 456.189 1048.51 439.453 1051.27 421.957C1054.03 439.501 1061.68 456.189 1073.14 469.739C1070 469.977 1067.2 467.838 1065.06 465.555C1062.92 463.273 1061.06 460.563 1058.35 459.042C1065.15 479.343 1072.57 500.406 1087.88 515.383C1078.75 514.432 1071.33 507.965 1064.53 501.88C1071.76 524.464 1085.26 544.956 1103.04 560.598C1093.44 556.034 1083.98 551.232 1074.61 546.144C1082.93 561.739 1093.77 576.003 1106.61 588.126C1099.53 581.423 1087.74 578.332 1079.03 574.243C1084.79 581.946 1089.35 590.504 1095.48 597.873C1100.52 603.911 1106.56 609.094 1112.6 614.181C1110.37 612.279 1101.38 611.994 1098.1 610.71C1095.58 609.712 1088.64 604.577 1086.31 606.622C1083.36 609.141 1099.72 625.735 1101.81 629.443C1105.94 636.622 1108.75 645.894 1117.12 649.602C1105.61 644.515 1094.53 638.382 1084.17 631.25C1090.21 654.785 1103.85 676.275 1122.54 691.727C1107.66 684.881 1092.77 678.034 1077.89 671.235C1094.25 686.355 1108.8 703.423 1121.16 721.918H981.234L981.329 721.871Z" fill="#142A38"/>
<path d="M1393.97 435.269C1408.76 413.161 1426.16 392.764 1445.7 374.649C1427.92 382.827 1410.14 391.005 1392.31 399.182C1414.65 380.687 1430.96 354.965 1438.19 326.866C1425.78 335.377 1412.56 342.746 1398.78 348.832C1405.62 340.654 1412.04 332.524 1419.93 325.535C1423.64 322.254 1426.45 319.116 1428.68 314.552C1429.39 313.078 1431.77 302.809 1432.44 302.523C1422.45 306.85 1411.9 310.035 1401.2 311.985C1414.51 304.996 1426.35 295.249 1435.81 283.553C1441.61 276.374 1446.7 267.625 1445.65 258.401C1435.05 262.966 1419.93 267.34 1411.42 275.375C1426.78 260.874 1439.76 243.805 1449.65 225.168C1438.48 231.253 1427.16 237.006 1415.65 242.474C1436.95 223.789 1453.02 199.255 1461.68 172.25C1453.55 179.572 1444.66 187.274 1433.77 188.415C1452.07 170.491 1460.96 145.339 1469.09 121.044C1465.81 122.898 1463.58 126.084 1461.06 128.841C1458.54 131.599 1455.16 134.119 1451.41 133.833C1465.1 117.621 1474.23 97.6517 1477.56 76.6843C1480.89 97.6517 1490.01 117.621 1503.71 133.833C1499.95 134.071 1496.62 131.551 1494.06 128.841C1491.54 126.084 1489.3 122.898 1486.02 121.044C1494.15 145.339 1503.04 170.491 1521.35 188.415C1510.46 187.274 1501.57 179.572 1493.44 172.25C1502.09 199.208 1518.21 223.741 1539.46 242.474C1527.95 237.006 1516.64 231.253 1505.47 225.168C1515.4 243.805 1528.38 260.874 1543.69 275.375C1535.23 267.388 1521.11 263.679 1510.7 258.782C1517.54 268.006 1523.01 278.228 1530.38 287.024C1536.42 294.251 1543.64 300.431 1550.82 306.517C1548.16 304.235 1537.37 303.902 1533.52 302.333C1530.47 301.145 1522.2 295.011 1519.44 297.436C1515.93 300.479 1535.47 320.305 1537.99 324.679C1542.93 333.285 1546.26 344.363 1556.29 348.785C1542.5 342.699 1529.29 335.377 1516.88 326.819C1524.1 354.918 1540.41 380.64 1562.76 399.135C1544.98 390.957 1527.19 382.779 1509.36 374.602C1528.91 392.716 1546.31 413.065 1561.09 435.221H1393.83L1393.97 435.269Z" fill="#142A38"/>
<path d="M919.14 758.052C931.502 739.557 946.098 722.489 962.406 707.369C947.524 714.216 932.643 721.062 917.761 727.861C936.446 712.362 950.092 690.871 956.13 667.384C945.765 674.516 934.687 680.649 923.181 685.736C928.887 678.89 934.307 672.091 940.868 666.243C943.958 663.485 946.288 660.87 948.19 657.067C948.808 655.831 950.757 647.272 951.328 647.035C942.96 650.648 934.164 653.311 925.178 654.927C936.304 649.079 946.24 640.949 954.133 631.155C958.982 625.116 963.214 617.795 962.358 610.14C953.467 613.943 940.82 617.604 933.736 624.308C946.573 612.137 957.414 597.921 965.734 582.326C956.415 587.413 946.906 592.215 937.302 596.78C955.084 581.137 968.587 560.598 975.814 538.061C969.015 544.195 961.55 550.613 952.469 551.564C967.778 536.588 975.243 515.525 981.994 495.223C979.237 496.745 977.382 499.407 975.29 501.737C973.151 504.019 970.346 506.159 967.208 505.921C978.666 492.371 986.321 475.635 989.079 458.138C991.836 475.682 999.491 492.371 1010.95 505.921C1007.81 506.159 1005.01 504.019 1002.87 501.737C1000.73 499.455 998.873 496.745 996.163 495.223C1002.96 515.525 1010.38 536.588 1025.69 551.564C1016.56 550.613 1009.14 544.147 1002.34 538.061C1009.57 560.645 1023.07 581.137 1040.86 596.78C1031.25 592.215 1021.79 587.413 1012.42 582.326C1020.74 597.921 1031.58 612.184 1044.42 624.308C1037.34 617.604 1025.5 614.514 1016.84 610.425C1022.6 618.127 1027.16 626.685 1033.3 634.055C1038.34 640.093 1044.37 645.276 1050.41 650.363C1048.18 648.461 1039.19 648.176 1035.91 646.892C1033.39 645.894 1026.45 640.759 1024.12 642.803C1021.17 645.323 1037.53 661.916 1039.62 665.625C1043.76 672.804 1046.56 682.075 1054.93 685.784C1043.42 680.697 1032.34 674.563 1021.98 667.431C1028.02 690.966 1041.66 712.457 1060.35 727.909C1045.47 721.062 1030.59 714.216 1015.7 707.417C1032.06 722.536 1046.61 739.605 1058.97 758.1H919.045L919.14 758.052Z" fill="#142A38"/>
<path d="M701.955 789.717C714.317 771.222 728.913 754.154 745.221 739.034C730.339 745.881 715.458 752.727 700.576 759.526C719.261 744.026 732.907 722.536 738.945 699.049C728.58 706.181 717.502 712.314 705.996 717.401C711.702 710.555 717.122 703.756 723.683 697.908C726.773 695.15 729.103 692.535 731.005 688.732C731.623 687.495 733.572 678.937 734.143 678.7C725.775 682.313 716.979 684.976 707.993 686.592C719.119 680.744 729.056 672.614 736.948 662.82C741.798 656.781 746.029 649.459 745.173 641.805C736.282 645.608 723.635 649.269 716.551 655.973C729.388 643.801 740.229 629.586 748.549 613.991C739.23 619.078 729.721 623.88 720.117 628.445C737.899 612.802 751.402 592.263 758.629 569.726C751.83 575.86 744.365 582.278 735.284 583.229C750.593 568.252 758.058 547.19 764.809 526.888C762.052 528.41 760.198 531.072 758.106 533.402C755.966 535.684 753.161 537.824 750.023 537.586C761.481 524.036 769.136 507.3 771.894 489.803C774.651 507.347 782.306 524.036 793.764 537.586C790.626 537.824 787.821 535.684 785.682 533.402C783.542 531.12 781.688 528.41 778.978 526.888C785.777 547.19 793.194 568.252 808.503 583.229C799.375 582.278 791.958 575.812 785.159 569.726C792.386 592.31 805.888 612.802 823.67 628.445C814.066 623.88 804.605 619.078 795.238 613.991C803.559 629.586 814.399 643.849 827.236 655.973C820.152 649.269 808.313 646.179 799.66 642.09C805.413 649.792 809.977 658.35 816.11 665.72C821.15 671.758 827.188 676.94 833.227 682.028C830.992 680.126 822.006 679.841 818.726 678.557C816.206 677.558 809.264 672.424 806.934 674.468C803.986 676.988 820.342 693.581 822.434 697.29C826.57 704.469 829.376 713.74 837.744 717.449C826.238 712.362 815.16 706.228 804.795 699.096C810.833 722.631 824.478 744.122 843.164 759.574C828.282 752.727 813.4 745.881 798.519 739.082C814.874 754.201 829.423 771.27 841.785 789.765H701.86L701.955 789.717Z" fill="#142A38"/>
<path d="M540.968 827.706C553.329 809.211 567.926 792.142 584.233 777.023C569.352 783.869 554.47 790.716 539.589 797.515C558.274 782.015 571.919 760.525 577.957 737.037C567.593 744.169 556.515 750.302 545.009 755.39C550.714 748.543 556.134 741.744 562.696 735.896C565.786 733.139 568.116 730.524 570.018 726.72C570.636 725.484 572.585 716.926 573.155 716.688C564.787 720.302 555.992 722.964 547.006 724.581C558.131 718.733 568.068 710.602 575.961 700.808C580.81 694.77 585.042 687.448 584.186 679.793C575.295 683.597 562.648 687.258 555.564 693.962C568.401 681.79 579.241 667.574 587.562 651.979C578.243 657.067 568.734 661.869 559.13 666.433C576.912 650.791 590.414 630.251 597.641 607.715C590.842 613.848 583.378 620.267 574.296 621.218C589.606 606.241 597.071 585.178 603.822 564.877C601.064 566.398 599.21 569.061 597.118 571.39C594.979 573.673 592.174 575.812 589.036 575.574C600.494 562.024 608.149 545.288 610.906 527.792C613.664 545.336 621.319 562.024 632.777 575.574C629.639 575.812 626.834 573.673 624.694 571.39C622.555 569.108 620.701 566.398 617.99 564.877C624.789 585.178 632.206 606.241 647.516 621.218C638.387 620.267 630.97 613.801 624.171 607.715C631.398 630.299 644.901 650.791 662.683 666.433C653.079 661.869 643.617 657.067 634.251 651.979C642.571 667.574 653.411 681.838 666.249 693.962C659.164 687.258 647.326 684.167 638.673 680.078C644.426 687.781 648.99 696.339 655.123 703.708C660.163 709.746 666.201 714.929 672.239 720.016C670.005 718.114 661.019 717.829 657.738 716.545C655.218 715.547 648.277 710.412 645.947 712.457C642.999 714.976 659.355 731.57 661.447 735.278C665.583 742.458 668.388 751.729 676.756 755.437C665.25 750.35 654.172 744.217 643.807 737.085C649.846 760.62 663.491 782.11 682.176 797.562C667.295 790.716 652.413 783.869 637.531 777.07C653.887 792.19 668.436 809.258 680.797 827.753H540.872L540.968 827.706Z" fill="#142A38"/>
<path d="M-1666.26 -72.4647C-1127.01 30.2326 -1041.38 449.675 -510.681 475.349C20.0165 501.023 45.6908 740.698 379.552 732.14C713.366 723.582 856.714 929.024 856.714 929.024H-2342.45L-1666.22 -72.4647H-1666.26Z" fill="#224C59"/>
<mask id="mask2_8_6519" style="mask-type:luminance" maskUnits="userSpaceOnUse" x="-2343" y="-73" width="3200" height="1003">
<path d="M-1666.26 -72.4647C-1127.01 30.2326 -1041.38 449.675 -510.681 475.349C20.0165 501.023 45.6908 740.698 379.552 732.14C713.366 723.582 856.714 929.024 856.714 929.024H-2342.45L-1666.22 -72.4647H-1666.26Z" fill="white"/>
</mask>
<g mask="url(#mask2_8_6519)">
<g style="mix-blend-mode:multiply" opacity="0.35">
<path d="M-1671.02 316.311C-1563.61 329.386 -1456.11 368.516 -1379.47 444.968C-1367.06 457.377 -1355.37 470.785 -1340.91 480.674C-1321.89 493.702 -1299.12 499.978 -1276.58 504.97C-1202.84 521.373 -1127.15 526.555 -1052.31 536.968C-934.83 553.371 -819.153 582.896 -708.183 624.783C-670.528 638.999 -633.014 654.737 -593.267 661.108C-548.669 668.192 -503.169 663.2 -458.001 664.056C-318.266 666.813 -182.81 726.435 -43.3133 718.067C37.3231 713.217 114.631 685.879 191.797 661.916C202.209 658.683 213.43 655.498 223.89 658.731C251.086 667.194 248.328 707.749 233.161 731.902C195.22 792.427 122.524 819.956 54.2966 840.971C-529.414 1020.69 -1170.99 1006.86 -1746.38 802.126C-1836 770.224 -1928.19 730.856 -1987.1 656.163C-2034.93 595.496 -2158.59 335.662 -2050.24 287.879C-2010.87 270.525 -1947.35 300.621 -1907.93 306.707C-1829.63 318.784 -1749.85 306.612 -1670.92 316.216L-1671.02 316.311Z" fill="#285669"/>
</g>
</g>
<path d="M2219.88 167.21C1706.3 64.5127 1432.39 252.791 1184.16 458.233C935.924 663.675 790.389 635.339 627.785 623.833C465.133 612.327 259.691 623.833 133.982 706.466C2.2346 793.045 -508.161 794.709 -544.914 783.489C-581.666 772.268 -373.704 892.605 -373.704 892.605H2262.67L2219.88 167.21Z" fill="#285669"/>
<mask id="mask3_8_6519" style="mask-type:luminance" maskUnits="userSpaceOnUse" x="-550" y="138" width="2813" height="755">
<path d="M2219.88 167.21C1706.3 64.5127 1432.39 252.791 1184.16 458.233C935.924 663.675 790.389 635.339 627.785 623.833C465.133 612.327 259.691 623.833 133.982 706.466C2.2346 793.045 -508.161 794.709 -544.914 783.489C-581.666 772.268 -373.704 892.605 -373.704 892.605H2262.67L2219.88 167.21Z" fill="white"/>
</mask>
<g mask="url(#mask3_8_6519)">
<g style="mix-blend-mode:overlay" opacity="0.41">
<path d="M1668.83 256.262C1610.16 276.136 1548.92 299.29 1509.65 347.263C1518.97 349.545 1528.29 351.875 1537.61 354.157C1463.58 386.963 1389.55 419.722 1315.52 452.528C1453.4 490.707 1593.66 402.653 1736.58 396.092C1785.03 393.857 1833.38 401.084 1881.88 402.891C1966.46 406.029 2050.67 392.621 2135.01 385.632C2158.4 383.683 2182.22 382.161 2204.09 373.698C2225.96 365.235 2246.08 348.499 2252.11 325.82C2261.39 291.017 2235.85 256.928 2209.09 232.822C2133.77 164.975 2069.87 166.925 1970.93 179.714C1867.62 193.027 1767.25 222.933 1668.83 256.262Z" fill="white"/>
</g>
<g style="mix-blend-mode:overlay" opacity="0.41">
<path d="M1133.33 580.329C1136.94 579.045 1140.56 577.761 1144.17 576.43C1192.05 559.076 1242.07 547.142 1288.61 527.031C1257.23 578.712 1196.42 603.246 1139.75 624.403C1172.03 630.964 1204.36 637.525 1236.65 644.134C1202.84 637.24 1154.01 654.309 1118.69 655.355C1070.19 656.829 1023.41 649.65 975.054 648.366C908.776 646.607 843.877 665.149 778.74 677.606C713.604 690.063 644.045 696.053 582.855 670.474C632.587 672.376 695.442 680.459 743.414 667.574C742.511 662.772 730.815 656.353 730.815 655.735C730.815 656.116 864.892 644.467 877.063 643.611C921.756 640.426 964.451 623.357 1007.48 610.187C1001.35 616.606 993.549 621.503 985.086 624.213C1035.2 612.184 1084.65 597.54 1133.24 580.376L1133.33 580.329Z" fill="white"/>
</g>
<g style="mix-blend-mode:overlay" opacity="0.41">
<path d="M204.824 701.806C213.335 697.194 223.7 696.053 233.019 698.811C201.449 704.136 171.162 716.878 145.298 735.753C164.839 721.49 206.821 717.972 230.308 711.553C260.927 703.185 291.642 695.245 322.594 688.351C384.069 674.706 445.402 667.003 508.162 663.247C408.079 635.909 298.393 663.533 204.824 701.854V701.806Z" fill="white"/>
</g>
<g style="mix-blend-mode:multiply" opacity="0.35">
<path d="M1662.46 512.292C1668.59 521.516 1680.1 526.841 1691.13 525.652C1569.46 552.135 1448.79 583.182 1329.45 618.793C1483.4 620.885 1637.4 623.024 1791.35 625.116C1788.98 633.817 1786.6 642.518 1784.22 651.219C1861.2 658.445 1937.51 635.624 2011.44 613.088C2042.91 603.483 2088.13 582.706 2072.39 540.867C2059.32 506.159 2015.2 510.438 1984.48 508.964C1877.27 503.686 1769.53 505.16 1662.46 512.34V512.292Z" fill="#285669"/>
</g>
<g style="mix-blend-mode:multiply" opacity="0.35">
<path d="M484.293 712.267C483.295 728.289 504.547 734.47 520.57 735.279C579.764 738.226 638.957 741.174 698.151 744.169C726.25 745.596 754.492 746.974 782.496 744.074C802.988 741.982 823.242 737.561 843.781 735.896C873.545 733.472 903.45 736.8 933.118 740.461C1004.82 749.257 1076.32 759.812 1147.5 772.173C847.68 789.527 547.861 806.881 248.042 824.235C208.96 826.517 167.976 828.419 132.46 811.921C116.818 804.647 102.459 793.901 85.4855 790.764C75.5011 788.909 64.7084 789.099 54.6764 788.672C81.3492 775.977 123.332 779.733 152.905 776.215C191.178 771.65 229.357 766.135 267.345 759.717C288.218 756.198 483.438 726.863 484.341 712.314L484.293 712.267Z" fill="#285669"/>
</g>
</g>
<path d="M670.719 1185.39C696.345 1147.07 726.489 1111.74 760.341 1080.41C729.532 1094.58 698.723 1108.74 667.914 1122.87C706.615 1090.82 734.857 1046.27 747.409 997.584C725.918 1012.32 703.002 1025.07 679.134 1035.62C690.973 1021.45 702.146 1007.38 715.744 995.302C722.162 989.644 727.012 984.129 730.863 976.284C732.099 973.764 736.188 955.982 737.377 955.459C720.023 962.971 701.813 968.486 683.223 971.862C706.282 959.786 726.822 942.86 743.13 922.606C753.162 910.149 761.958 894.982 760.198 879.054C741.799 886.947 715.601 894.554 700.957 908.437C727.535 883.286 750.024 853.76 767.188 821.477C747.837 831.985 728.201 841.969 708.327 851.431C745.174 819.053 773.083 776.547 788.06 729.81C773.986 742.505 758.534 755.818 739.707 757.814C771.419 726.768 786.824 683.216 800.897 641.139C795.239 644.324 791.388 649.84 786.966 654.594C782.545 659.349 776.744 663.723 770.278 663.295C793.955 635.243 809.835 600.583 815.541 564.306C821.294 600.583 837.126 635.196 860.804 663.295C854.338 663.723 848.537 659.396 844.115 654.594C839.694 649.84 835.843 644.277 830.185 641.139C844.258 683.216 859.663 726.815 891.375 757.814C872.5 755.818 857.095 742.505 843.022 729.81C858.046 776.547 885.908 819.053 922.755 851.431C902.881 841.969 883.245 831.985 863.894 821.477C881.058 853.808 903.547 883.286 930.124 908.437C915.48 894.602 890.995 888.183 872.975 879.72C884.862 895.647 894.323 913.382 907.065 928.644C917.525 941.196 930.029 951.846 942.486 962.448C937.874 958.55 919.237 957.884 912.485 955.221C907.255 953.129 892.944 942.575 888.095 946.711C881.961 951.941 915.813 986.316 920.187 993.923C928.793 1008.8 934.546 1027.97 951.948 1035.62C928.08 1025.11 905.211 1012.37 883.673 997.584C896.177 1046.27 924.419 1090.77 963.168 1122.87C932.359 1108.7 901.55 1094.53 870.741 1080.41C904.593 1111.74 934.736 1147.07 960.363 1185.39H670.671H670.719Z" fill="#142A38"/>
<path d="M1268.93 950.086C1289.52 919.325 1313.67 890.988 1340.82 865.884C1316.1 877.247 1291.37 888.611 1266.65 899.974C1297.7 874.252 1320.37 838.546 1330.41 799.464C1313.15 811.302 1294.8 821.525 1275.63 829.94C1285.14 818.577 1294.08 807.261 1305.02 797.609C1310.15 793.045 1314.05 788.671 1317.14 782.348C1318.14 780.303 1321.42 766.04 1322.37 765.659C1308.49 771.697 1293.84 776.119 1278.92 778.782C1297.41 769.082 1313.86 755.532 1326.98 739.272C1335.02 729.287 1342.1 717.116 1340.68 704.326C1325.89 710.65 1304.92 716.735 1293.13 727.908C1314.48 707.749 1332.5 684.072 1346.29 658.16C1330.79 666.575 1315 674.61 1299.07 682.17C1328.65 656.21 1350.99 622.073 1363.07 584.608C1351.75 594.782 1339.39 605.48 1324.27 607.096C1349.71 582.183 1362.07 547.237 1373.34 513.48C1368.78 516.048 1365.68 520.469 1362.17 524.273C1358.65 528.077 1353.99 531.595 1348.76 531.262C1367.78 508.726 1380.47 480.959 1385.08 451.862C1389.7 480.959 1402.39 508.726 1421.41 531.262C1416.23 531.643 1411.57 528.124 1408 524.273C1404.48 520.469 1401.39 516 1396.83 513.48C1408.09 547.237 1420.46 582.183 1445.89 607.096C1430.77 605.48 1418.41 594.83 1407.1 584.608C1419.13 622.073 1441.52 656.163 1471.09 682.17C1455.12 674.61 1439.38 666.575 1423.88 658.16C1437.67 684.072 1455.69 707.749 1477.04 727.908C1465.29 716.83 1445.66 711.648 1431.2 704.897C1440.71 717.686 1448.32 731.902 1458.54 744.121C1466.96 754.201 1476.99 762.711 1486.97 771.222C1483.26 768.084 1468.29 767.561 1462.91 765.421C1458.73 763.757 1447.22 755.247 1443.33 758.575C1438.43 762.806 1465.58 790.335 1469.1 796.468C1475.99 808.402 1480.6 823.807 1494.58 829.94C1475.42 821.525 1457.07 811.302 1439.81 799.464C1449.84 838.546 1472.52 874.252 1503.57 899.974C1478.84 888.611 1454.12 877.247 1429.4 865.884C1456.54 891.035 1480.7 919.372 1501.28 950.086H1268.88H1268.93Z" fill="#142A38"/>
<path d="M1431.68 815.629C1452.26 784.867 1476.42 756.531 1503.56 731.427C1478.84 742.79 1454.12 754.153 1429.39 765.516C1460.44 739.795 1483.12 704.088 1493.15 665.006C1475.89 676.845 1457.54 687.067 1438.38 695.483C1447.89 684.119 1456.83 672.804 1467.76 663.152C1472.9 658.588 1476.8 654.214 1479.89 647.89C1480.89 645.846 1484.17 631.582 1485.12 631.202C1471.23 637.24 1456.59 641.662 1441.66 644.324C1460.16 634.625 1476.61 621.075 1489.73 604.814C1497.76 594.83 1504.85 582.658 1503.42 569.869C1488.64 576.192 1467.67 582.278 1455.88 593.451C1477.23 573.292 1495.24 549.615 1509.03 523.703C1493.53 532.118 1477.75 540.153 1461.82 547.713C1491.39 521.753 1513.74 487.616 1525.82 450.15C1514.5 460.325 1502.14 471.023 1487.02 472.639C1512.46 447.725 1524.82 412.78 1536.09 379.023C1531.52 381.59 1528.43 386.012 1524.91 389.816C1521.39 393.619 1516.73 397.138 1511.5 396.805C1530.52 374.268 1543.22 346.502 1547.83 317.405C1552.44 346.502 1565.14 374.268 1584.15 396.805C1578.97 397.185 1574.31 393.667 1570.75 389.816C1567.23 386.012 1564.14 381.543 1559.57 379.023C1570.84 412.78 1583.2 447.725 1608.64 472.639C1593.52 471.023 1581.16 460.373 1569.84 450.15C1581.87 487.616 1604.27 521.706 1633.84 547.713C1617.86 540.153 1602.13 532.118 1586.63 523.703C1600.41 549.615 1618.43 573.292 1639.78 593.451C1628.04 582.373 1608.4 577.191 1593.95 570.439C1603.46 583.229 1611.06 597.445 1621.29 609.664C1629.7 619.743 1639.73 628.254 1649.72 636.765C1646.01 633.627 1631.03 633.104 1625.66 630.964C1621.48 629.3 1609.97 620.789 1606.07 624.118C1601.17 628.349 1628.32 655.878 1631.84 662.011C1638.74 673.945 1643.35 689.349 1657.33 695.483C1638.16 687.067 1619.81 676.845 1602.55 665.006C1612.59 704.088 1635.26 739.795 1666.31 765.516C1641.59 754.153 1616.86 742.79 1592.14 731.427C1619.29 756.578 1643.44 784.915 1664.03 815.629H1431.63H1431.68Z" fill="#142A38"/>
<path d="M1446.89 1010.52C1467.48 979.754 1491.63 951.417 1518.78 926.314C1494.06 937.677 1469.33 949.04 1444.61 960.403C1475.66 934.681 1498.34 898.975 1508.37 859.893C1491.11 871.732 1472.76 881.954 1453.6 890.37C1463.11 879.006 1472.04 867.691 1482.98 858.039C1488.11 853.475 1492.01 849.1 1495.1 842.777C1496.1 840.733 1499.38 826.469 1500.33 826.089C1486.45 832.127 1471.81 836.549 1456.88 839.211C1475.37 829.512 1491.82 815.962 1504.95 799.701C1512.98 789.717 1520.06 777.545 1518.64 764.756C1503.85 771.079 1482.88 777.165 1471.09 788.338C1492.44 768.179 1510.46 744.501 1524.25 718.589C1508.75 727.005 1492.96 735.04 1477.04 742.6C1506.61 716.64 1528.96 682.503 1541.03 645.037C1529.72 655.212 1517.35 665.909 1502.24 667.526C1527.67 642.612 1540.03 607.667 1551.3 573.91C1546.74 576.477 1543.65 580.899 1540.13 584.703C1536.61 588.506 1531.95 592.024 1526.72 591.692C1545.74 569.155 1558.43 541.389 1563.05 512.291C1567.66 541.389 1580.35 569.155 1599.37 591.692C1594.19 592.072 1589.53 588.554 1585.96 584.703C1582.44 580.899 1579.35 576.43 1574.79 573.91C1586.06 607.667 1598.42 642.612 1623.86 667.526C1608.74 665.909 1596.37 655.259 1585.06 645.037C1597.09 682.503 1619.48 716.592 1649.05 742.6C1633.08 735.04 1617.34 727.005 1601.84 718.589C1615.63 744.501 1633.65 768.179 1655 788.338C1643.25 777.26 1623.62 772.077 1609.16 765.326C1618.67 778.116 1626.28 792.332 1636.5 804.551C1644.92 814.63 1654.95 823.141 1664.93 831.651C1661.23 828.513 1646.25 827.99 1640.88 825.851C1636.69 824.187 1625.19 815.676 1621.29 819.004C1616.39 823.236 1643.54 850.765 1647.06 856.898C1653.95 868.832 1658.56 884.236 1672.54 890.37C1653.38 881.954 1635.03 871.732 1617.77 859.893C1627.8 898.975 1650.48 934.681 1681.53 960.403C1656.8 949.04 1632.08 937.677 1607.36 926.314C1634.51 951.465 1658.66 979.802 1679.25 1010.52H1446.84H1446.89Z" fill="#142A38"/>
<path d="M1086.07 1063.15C1106.66 1032.39 1130.81 1004.05 1157.96 978.946C1133.24 990.309 1108.51 1001.67 1083.79 1013.04C1114.84 987.314 1137.52 951.608 1147.55 912.526C1130.29 924.364 1111.94 934.587 1092.78 943.002C1102.29 931.639 1111.22 920.323 1122.16 910.671C1127.29 906.107 1131.19 901.733 1134.28 895.41C1135.28 893.365 1138.56 879.102 1139.51 878.721C1125.63 884.759 1110.99 889.181 1096.06 891.844C1114.55 882.144 1131 868.594 1144.13 852.334C1152.16 842.349 1159.25 830.178 1157.82 817.388C1143.03 823.712 1122.06 829.797 1110.27 840.97C1131.62 820.811 1149.64 797.134 1163.43 771.222C1147.93 779.637 1132.14 787.672 1116.22 795.232C1145.79 769.273 1168.14 735.135 1180.21 697.67C1168.9 707.844 1156.54 718.542 1141.42 720.158C1166.85 695.245 1179.21 660.299 1190.48 626.542C1185.92 629.11 1182.83 633.531 1179.31 637.335C1175.79 641.139 1171.13 644.657 1165.9 644.324C1184.92 621.788 1197.61 594.022 1202.23 564.924C1206.84 594.022 1219.53 621.788 1238.55 644.324C1233.37 644.705 1228.71 641.186 1225.14 637.335C1221.58 633.484 1218.53 629.062 1213.97 626.542C1225.24 660.299 1237.6 695.245 1263.04 720.158C1247.92 718.542 1235.55 707.892 1224.24 697.67C1236.27 735.135 1258.66 769.225 1288.23 795.232C1272.26 787.672 1256.52 779.637 1241.02 771.222C1254.81 797.134 1272.83 820.811 1294.18 840.97C1282.43 829.892 1262.8 824.71 1248.34 817.959C1257.85 830.748 1265.46 844.964 1275.68 857.183C1284.1 867.263 1294.13 875.773 1304.11 884.284C1300.41 881.146 1285.43 880.623 1280.06 878.483C1275.87 876.819 1264.37 868.309 1260.47 871.637C1255.57 875.869 1282.72 903.397 1286.24 909.53C1293.13 921.464 1297.74 936.869 1311.72 943.002C1292.56 934.587 1274.21 924.364 1256.95 912.526C1266.98 951.608 1289.66 987.314 1320.71 1013.04C1295.98 1001.67 1271.26 990.309 1246.54 978.946C1273.69 1004.1 1297.84 1032.43 1318.43 1063.15H1086.03H1086.07Z" fill="#142A38"/>
<path d="M818.727 1126.19C839.314 1095.43 863.467 1067.09 890.615 1041.99C865.892 1053.35 841.168 1064.72 816.445 1076.08C847.492 1050.36 870.171 1014.65 880.203 975.57C862.944 987.409 844.592 997.631 825.431 1006.05C834.94 994.684 843.878 983.368 854.814 973.716C859.949 969.152 863.847 964.778 866.938 958.454C867.936 956.41 871.217 942.146 872.168 941.766C858.284 947.804 843.641 952.226 828.712 954.888C847.207 945.189 863.657 931.639 876.779 915.378C884.815 905.394 891.899 893.223 890.472 880.433C875.686 886.756 854.719 892.842 842.927 904.015C864.275 883.856 882.295 860.179 896.083 834.267C880.583 842.682 864.798 850.717 848.871 858.277C878.444 832.317 900.79 798.18 912.866 760.714C901.55 770.889 889.189 781.587 874.069 783.203C899.506 758.29 911.868 723.344 923.136 689.587C918.572 692.155 915.481 696.576 911.963 700.38C908.444 704.183 903.785 707.702 898.555 707.369C917.573 684.833 930.268 657.066 934.88 627.969C939.491 657.066 952.186 684.833 971.204 707.369C966.022 707.749 961.362 704.231 957.796 700.38C954.278 696.576 951.187 692.107 946.623 689.587C957.891 723.344 970.253 758.29 995.69 783.203C980.57 781.587 968.209 770.937 956.893 760.714C968.922 798.18 991.315 832.27 1020.89 858.277C1004.91 850.717 989.176 842.682 973.676 834.267C987.464 860.179 1005.48 883.856 1026.83 904.015C1015.09 892.937 995.452 887.755 980.998 881.003C990.507 893.793 998.114 908.009 1008.34 920.228C1016.75 930.308 1026.78 938.818 1036.77 947.329C1033.06 944.191 1018.08 943.668 1012.71 941.528C1008.53 939.864 997.021 931.354 993.122 934.682C988.225 938.913 1015.37 966.442 1018.89 972.575C1025.79 984.509 1030.4 999.913 1044.38 1006.05C1025.22 997.631 1006.86 987.409 989.604 975.57C999.636 1014.65 1022.31 1050.36 1053.36 1076.08C1028.64 1064.72 1003.91 1053.35 979.192 1041.99C1006.34 1067.14 1030.49 1095.48 1051.08 1126.19H818.679H818.727Z" fill="#142A38"/>
<path d="M-2360.09 550.423C-1901.66 365.853 -1314.05 415.918 -819.201 609.046C-83.3942 896.218 276.141 804.836 586.278 920.609C905.685 1039.85 989.602 1001.01 1042 1039.85C1094.39 1078.7 339.566 1098.14 -345.272 1107.84C-1030.06 1117.54 -715.743 1156.43 -558.559 1258.42C-401.375 1360.4 -1108.66 1418.69 -1501.62 1399.24C-1894.57 1379.8 -1999.32 1416.36 -2248.21 1402.95C-2497.07 1389.55 -2680.45 1258.37 -2680.45 1258.37L-2360.14 550.375L-2360.09 550.423Z" fill="#DFB800"/>
<mask id="mask4_8_6519" style="mask-type:luminance" maskUnits="userSpaceOnUse" x="-2681" y="435" width="3726" height="971">
<path d="M-2360.09 550.423C-1901.66 365.853 -1314.05 415.918 -819.201 609.046C-83.3942 896.218 276.141 804.836 586.278 920.609C905.685 1039.85 989.602 1001.01 1042 1039.85C1094.39 1078.7 339.566 1098.14 -345.272 1107.84C-1030.06 1117.54 -715.743 1156.43 -558.559 1258.42C-401.375 1360.4 -1108.66 1418.69 -1501.62 1399.24C-1894.57 1379.8 -1999.32 1416.36 -2248.21 1402.95C-2497.07 1389.55 -2680.45 1258.37 -2680.45 1258.37L-2360.14 550.375L-2360.09 550.423Z" fill="white"/>
</mask>
<g mask="url(#mask4_8_6519)">
<g style="mix-blend-mode:overlay" opacity="0.41">
<path d="M894.036 989.216C748.596 1034.86 562.885 1003.48 418.728 965.063C402.373 960.689 383.307 952.939 380.312 936.251C379.218 930.165 380.455 923.319 376.936 918.184C373.751 913.572 367.76 912.003 362.293 910.814C303.099 897.739 251.37 888.231 191.511 887.66C117.008 886.947 46.7836 893.698 -27.0538 880.195C-163.984 855.139 -291.927 797.657 -426.67 764.233C-636.438 712.219 -855.764 699.905 -1066.48 643.088C-1145.31 621.836 -1224.48 598.206 -1306.06 594.973C-1417.32 590.551 -1528.72 624.356 -1639.16 609.997C-1717.28 599.822 -1790.07 566.161 -1863.29 537.015C-2021.28 474.208 -2245.46 472.307 -2385.24 381.068C-2566.62 262.681 -2365.98 184.326 -2253.45 149.904C-2044.96 86.1934 -1827.44 55.3842 -1609.78 50.2018C-1173.32 39.8845 -739.183 129.554 -324.353 259.115C-158.373 310.939 7.98697 370.18 150.765 469.406C309.898 579.996 437.889 738.892 616.706 813.585C680.084 840.02 758.105 864.886 776.22 931.116C795.761 949.136 813.733 947.567 836.887 952.654C846.491 954.794 893.133 989.406 893.989 989.121L894.036 989.216Z" fill="white"/>
</g>
</g>
</g>
</g>
</svg>
