<svg width="1512" height="482" viewBox="0 0 1512 482" fill="none" xmlns="http://www.w3.org/2000/svg">
<g style="mix-blend-mode:luminosity" opacity="0.1">
<path d="M-80.8745 105.023C-76.3385 90.7697 78.8733 -4.82903 100.364 0.190815C121.875 5.1905 229.166 204.795 254.285 210.016C279.405 215.258 331.337 142.178 364.178 140.646C396.998 139.093 451.612 252.574 490.682 267.331C529.752 282.108 603.981 258.622 635.572 276.564C667.162 294.507 806.629 331.742 806.629 331.742L915.876 500.723L-187.178 430.466L-80.8745 105.023Z" fill="#CAE3DD"/>
<path d="M1638.81 128.63C1640.89 92.3421 1446.45 11.4602 1413.79 18.7178C1381.13 25.9754 1230.41 216.608 1213.22 217.979C1196.02 219.35 989.138 37.8698 960.107 41.4986C931.077 45.1274 706.051 342.749 687.887 340.935C669.743 339.121 622.548 306.461 604.404 313.719C586.26 320.977 562.693 353.636 529.107 357.265C495.52 360.893 412.037 288.297 383.007 291.926C353.977 295.555 190.64 423.833 190.64 423.833L1007.28 506.066L1693.27 377.888L1638.81 128.59V128.63Z" fill="#A7C2C5"/>
<mask id="mask0_5_5903" style="mask-type:luminance" maskUnits="userSpaceOnUse" x="190" y="18" width="1504" height="489">
<path d="M1638.81 128.63C1640.89 92.3421 1446.45 11.4602 1413.79 18.7178C1381.13 25.9754 1230.41 216.608 1213.22 217.979C1196.02 219.35 989.138 37.8698 960.107 41.4986C931.077 45.1274 706.051 342.749 687.887 340.935C669.743 339.121 622.548 306.461 604.404 313.719C586.26 320.977 562.693 353.636 529.107 357.265C495.52 360.893 412.037 288.297 383.007 291.926C353.977 295.555 190.64 423.833 190.64 423.833L1007.28 506.066L1693.27 377.888L1638.81 128.59V128.63Z" fill="white"/>
</mask>
<g mask="url(#mask0_5_5903)">
<path d="M1014.42 134.9C1005.97 136.855 997.544 138.811 989.097 140.787C1015.47 153.084 1040.3 168.708 1062.82 187.175C1043 186.449 1023.19 185.723 1003.37 184.998C1010.91 191.933 1018.65 204.129 1011.07 211.024C1016.56 215.358 1022.06 219.693 1027.54 224.027C1021.23 227.152 1014.9 230.277 1008.59 233.402C1030.04 246.606 1049.96 262.311 1067.8 280.112C1063.67 282.814 1059.52 285.495 1055.38 288.176C1057.62 292.41 1059.84 296.644 1062.08 300.897C1047.62 305.796 1033.19 310.695 1018.73 315.614C1048.02 348.031 1094.65 360.188 1138.26 357.587C1167.51 355.833 1196.95 347.83 1224.14 337.286C1199.14 321.319 1176.71 301.361 1157.92 278.419C1173.88 281.06 1189.87 283.701 1205.84 286.342C1186.87 268.984 1168.62 250.82 1151.2 231.91C1154.17 233.422 1157.11 234.934 1160.07 236.426C1157.37 230.942 1154.67 225.438 1151.97 219.955C1166.44 221.83 1181.1 222.435 1195.68 221.749C1197.33 221.669 1199.14 221.507 1200.33 220.358C1201.38 219.35 1201.7 217.798 1201.91 216.346C1204.61 197.315 1198.1 178.143 1189.41 161.007C1171.97 126.634 1154.21 100.91 1124.35 76.194C1097.09 53.6148 1066.45 35.0474 1033.65 21.6612C1019.1 15.7341 960.389 -10.6956 947.83 5.04933C932.266 24.5642 977.263 66.8801 988.089 78.593C984.178 79.8631 978.977 86.153 975.025 87.4836C985.892 104.357 1001.35 119.538 1014.42 134.96V134.9Z" fill="#95B4B5"/>
<path d="M1453.72 63.6545C1449.61 64.4609 1445.48 65.2673 1441.37 66.0737C1455.46 77.4439 1466.95 91.9995 1474.73 108.329C1468.54 107.119 1462.33 105.91 1456.14 104.7C1462.13 111.918 1468.12 119.135 1474.09 126.372C1488.82 144.174 1503.84 162.197 1522.91 175.26C1548.3 192.618 1580.29 200.077 1610.73 195.723C1622.65 194.009 1635.12 190.038 1642.44 180.482C1647.12 174.393 1649.16 166.692 1650.3 159.112C1656.41 119.014 1640.04 77.4641 1612.32 47.8289C1584.62 18.2138 1546.66 -0.373695 1507.39 -10.5142C1475.88 -18.6588 1440.94 -21.3401 1412.07 -6.32089C1410.14 13.9802 1409.45 15.9357 1423.79 30.1889C1427.01 33.3943 1451.97 63.9972 1453.68 63.6545H1453.72Z" fill="#95B4B5"/>
<path d="M641.357 342.749C638.656 343.132 635.934 343.516 633.233 343.899C640.168 355.41 649.159 365.692 659.663 374.118C673.029 376.78 685.306 384.541 693.411 395.488C683.835 381.416 679.097 364.099 680.145 347.124C682.625 352.487 688.31 356.196 694.197 356.297C687.988 328.396 665.63 302.127 637.85 293.781C578.861 276.08 637.426 343.314 641.357 342.77V342.749Z" fill="#95B4B5"/>
<path d="M436.794 335.109C427.903 331.339 418.69 328.375 409.275 326.259C413.086 334.02 418.972 340.733 426.17 345.491C422.46 346.338 418.731 347.165 415.021 348.011C427.157 351.922 438.628 357.809 448.87 365.389C444.818 367.304 440.14 367.869 435.746 367.022C456.127 383.17 478.827 396.395 502.939 406.153C488.928 404.883 474.997 402.665 461.308 399.5C484.916 403.088 508.503 406.677 532.11 410.245C517.535 393.996 505.237 375.711 495.641 356.116C489.633 343.858 484.654 330.996 477.033 319.666C456.168 288.559 408.832 266.222 371.556 274.266C384.217 291.16 417.38 326.904 436.834 335.129L436.794 335.109Z" fill="#95B4B5"/>
</g>
<path d="M378.854 414.963C372.302 405.185 364.621 396.173 355.973 388.17C363.835 391.779 371.697 395.407 379.58 399.016C369.702 390.831 362.484 379.461 359.279 367.042C364.762 370.812 370.609 374.058 376.697 376.739C373.673 373.131 370.83 369.522 367.343 366.437C365.71 364.986 364.46 363.595 363.472 361.579C363.15 360.934 362.121 356.398 361.819 356.257C366.234 358.172 370.891 359.583 375.649 360.43C369.762 357.345 364.52 353.031 360.347 347.85C357.787 344.665 355.529 340.794 355.993 336.742C360.69 338.758 367.383 340.693 371.113 344.241C364.319 337.81 358.593 330.291 354.198 322.045C359.138 324.726 364.158 327.287 369.218 329.686C359.803 321.42 352.686 310.574 348.856 298.639C352.445 301.885 356.396 305.272 361.194 305.796C353.11 297.873 349.158 286.745 345.57 276.02C347.021 276.826 348.009 278.237 349.118 279.467C350.247 280.677 351.719 281.806 353.372 281.685C347.324 274.528 343.272 265.678 341.82 256.424C340.349 265.678 336.317 274.528 330.269 281.685C331.922 281.806 333.414 280.677 334.522 279.467C335.651 278.258 336.639 276.846 338.07 276.02C334.482 286.765 330.551 297.893 322.446 305.796C327.265 305.292 331.196 301.885 334.784 298.639C330.954 310.574 323.838 321.42 314.423 329.686C319.503 327.267 324.503 324.726 329.442 322.045C325.047 330.291 319.322 337.83 312.528 344.241C316.257 340.713 322.527 339.08 327.124 336.903C324.1 340.975 321.68 345.491 318.414 349.382C315.733 352.588 312.548 355.309 309.363 358.011C310.532 357.003 315.31 356.841 317.023 356.176C318.354 355.652 322.023 352.95 323.253 353.999C324.825 355.329 316.177 364.119 315.048 366.054C312.85 369.865 311.379 374.743 306.943 376.699C313.032 374.018 318.878 370.752 324.362 367.002C321.156 379.441 313.959 390.791 304.061 398.976C311.923 395.367 319.785 391.738 327.668 388.13C319.039 396.133 311.338 405.145 304.786 414.922H378.733L378.854 414.963Z" fill="#142A38"/>
<path d="M171.569 249.167C165.017 239.389 157.336 230.378 148.687 222.374C156.55 225.983 164.412 229.612 172.295 233.22C162.416 225.035 155.199 213.665 152.014 201.246C157.497 205.016 163.344 208.262 169.432 210.943C166.408 207.335 163.565 203.726 160.078 200.642C158.445 199.19 157.195 197.799 156.207 195.783C155.884 195.138 154.856 190.602 154.554 190.461C158.969 192.376 163.626 193.787 168.384 194.634C162.497 191.549 157.255 187.235 153.082 182.054C150.522 178.869 148.264 174.998 148.728 170.946C153.425 172.962 160.118 174.897 163.848 178.445C157.054 172.014 151.328 164.495 146.933 156.249C151.873 158.931 156.892 161.491 161.953 163.89C152.538 155.624 145.421 144.778 141.591 132.843C145.179 136.089 149.131 139.476 153.929 140C145.845 132.077 141.893 120.949 138.305 110.224C139.756 111.03 140.744 112.442 141.853 113.671C142.962 114.901 144.454 116.01 146.107 115.889C140.059 108.732 136.007 99.8819 134.555 90.6285C133.083 99.8819 129.051 108.732 123.003 115.889C124.657 116.01 126.148 114.881 127.257 113.671C128.386 112.462 129.374 111.051 130.805 110.224C127.217 120.969 123.286 132.098 115.181 140C120 139.496 123.931 136.089 127.519 132.843C123.689 144.778 116.572 155.624 107.158 163.89C112.238 161.471 117.238 158.931 122.177 156.249C117.782 164.495 112.057 172.035 105.263 178.445C108.992 174.917 115.242 173.284 119.858 171.107C116.834 175.18 114.415 179.695 111.149 183.586C108.468 186.792 105.283 189.513 102.097 192.215C103.267 191.207 108.045 191.045 109.758 190.38C111.089 189.856 114.758 187.155 115.988 188.203C117.56 189.533 108.912 198.323 107.783 200.259C105.585 204.069 104.113 208.947 99.6783 210.903C105.767 208.222 111.613 204.956 117.097 201.206C113.891 213.645 106.694 224.995 96.7954 233.18C104.658 229.571 112.52 225.942 120.403 222.334C111.774 230.337 104.073 239.349 97.5212 249.126H171.468L171.569 249.167Z" fill="#142A38"/>
<path d="M639.422 493.667C632.87 483.89 625.189 474.878 616.541 466.875C624.403 470.483 632.265 474.112 640.148 477.721C630.27 469.536 623.052 458.165 619.867 445.747C625.35 449.517 631.197 452.763 637.285 455.444C634.261 451.835 631.419 448.227 627.931 445.142C626.298 443.691 625.048 442.3 624.06 440.284C623.738 439.638 622.71 435.102 622.407 434.961C626.842 436.877 631.479 438.288 636.237 439.134C630.35 436.05 625.108 431.736 620.935 426.555C618.375 423.369 616.117 419.499 616.581 415.446C621.278 417.462 627.971 419.398 631.701 422.946C624.907 416.515 619.181 408.995 614.787 400.75C619.726 403.431 624.746 405.991 629.806 408.39C620.391 400.125 613.275 389.279 609.444 377.344C613.033 380.59 616.984 383.977 621.782 384.501C613.698 376.578 609.747 365.45 606.158 354.724C607.61 355.531 608.597 356.942 609.706 358.172C610.835 359.381 612.307 360.51 613.96 360.389C607.912 353.233 603.86 344.382 602.408 335.129C600.937 344.382 596.905 353.233 590.857 360.389C592.51 360.51 594.002 359.381 595.11 358.172C596.239 356.962 597.227 355.551 598.659 354.724C595.07 365.47 591.139 376.598 583.035 384.501C587.853 383.997 591.784 380.59 595.373 377.344C591.542 389.279 584.426 400.125 575.011 408.39C580.091 405.971 585.091 403.431 590.03 400.75C585.635 408.995 579.91 416.535 573.116 422.946C576.846 419.418 583.095 417.785 587.712 415.608C584.688 419.68 582.269 424.196 579.003 428.087C576.321 431.292 573.136 434.014 569.951 436.715C571.12 435.707 575.898 435.546 577.612 434.881C578.942 434.357 582.611 431.655 583.841 432.703C585.413 434.034 576.765 442.824 575.636 444.759C573.438 448.569 571.967 453.448 567.532 455.404C573.62 452.722 579.466 449.456 584.95 445.707C581.744 458.145 574.547 469.495 564.649 477.68C572.511 474.072 580.374 470.443 588.256 466.834C579.628 474.838 571.926 483.849 565.374 493.627H639.321L639.422 493.667Z" fill="#142A38"/>
<path d="M486.71 433.59C481.469 425.748 475.279 418.511 468.365 412.1C474.675 415.003 480.985 417.906 487.295 420.789C479.372 414.217 473.586 405.104 471.026 395.145C475.421 398.169 480.118 400.77 484.997 402.927C482.577 400.024 480.279 397.141 477.497 394.661C476.187 393.492 475.199 392.383 474.392 390.771C474.13 390.246 473.304 386.618 473.062 386.517C476.61 388.049 480.34 389.178 484.15 389.863C479.432 387.384 475.219 383.936 471.872 379.783C469.816 377.223 468.022 374.118 468.385 370.873C472.155 372.485 477.517 374.038 480.521 376.88C475.078 371.719 470.481 365.692 466.953 359.079C470.905 361.236 474.937 363.272 479.009 365.208C471.469 358.575 465.744 349.866 462.679 340.31C465.562 342.911 468.727 345.632 472.578 346.036C466.086 339.685 462.921 330.754 460.059 322.146C461.228 322.791 462.014 323.92 462.901 324.908C463.808 325.876 464.998 326.783 466.328 326.682C461.47 320.936 458.224 313.84 457.055 306.421C455.886 313.86 452.64 320.936 447.781 326.682C449.112 326.783 450.301 325.876 451.208 324.908C452.116 323.94 452.902 322.791 454.051 322.146C451.168 330.754 448.023 339.685 441.532 346.036C445.402 345.632 448.547 342.891 451.43 340.31C448.366 349.886 442.64 358.575 435.101 365.208C439.173 363.272 443.185 361.236 447.156 359.079C443.628 365.692 439.032 371.74 433.589 376.88C436.592 374.038 441.612 372.727 445.281 370.994C442.842 374.26 440.907 377.888 438.306 381.013C436.169 383.573 433.609 385.771 431.048 387.928C431.996 387.122 435.806 387.001 437.197 386.456C438.266 386.033 441.209 383.856 442.197 384.723C443.447 385.791 436.512 392.827 435.625 394.399C433.871 397.444 432.681 401.375 429.133 402.947C434.012 400.79 438.709 398.189 443.104 395.165C440.544 405.145 434.758 414.257 426.835 420.809C433.145 417.906 439.455 415.003 445.765 412.12C438.83 418.531 432.661 425.768 427.42 433.611H486.75L486.71 433.59Z" fill="#142A38"/>
<path d="M445.16 399.278C439.919 391.436 433.73 384.198 426.815 377.788C433.125 380.691 439.435 383.594 445.745 386.477C437.822 379.904 432.036 370.792 429.476 360.833C433.871 363.857 438.568 366.458 443.447 368.615C441.028 365.712 438.729 362.829 435.947 360.349C434.637 359.18 433.649 358.071 432.843 356.458C432.581 355.934 431.754 352.305 431.512 352.204C435.06 353.737 438.79 354.866 442.6 355.551C437.883 353.071 433.669 349.624 430.323 345.471C428.266 342.911 426.472 339.806 426.835 336.56C430.605 338.173 435.967 339.725 438.971 342.568C433.528 337.407 428.932 331.379 425.404 324.767C429.375 326.924 433.387 328.96 437.459 330.895C429.919 324.263 424.194 315.554 421.13 305.998C424.013 308.598 427.178 311.32 431.028 311.723C424.537 305.373 421.372 296.442 418.509 287.834C419.678 288.479 420.464 289.608 421.351 290.596C422.259 291.563 423.448 292.47 424.779 292.37C419.92 286.624 416.674 279.528 415.505 272.109C414.336 279.548 411.09 286.624 406.231 292.37C407.562 292.47 408.751 291.563 409.659 290.596C410.566 289.628 411.352 288.479 412.501 287.834C409.618 296.442 406.473 305.373 399.982 311.723C403.853 311.32 406.998 308.578 409.88 305.998C406.816 315.574 401.091 324.263 393.551 330.895C397.623 328.96 401.635 326.924 405.606 324.767C402.078 331.379 397.482 337.427 392.039 342.568C395.043 339.725 400.062 338.415 403.732 336.681C401.292 339.947 399.357 343.576 396.756 346.701C394.619 349.261 392.059 351.459 389.499 353.616C390.446 352.809 394.256 352.688 395.647 352.144C396.716 351.721 399.659 349.543 400.647 350.41C401.897 351.479 394.962 358.515 394.075 360.087C392.321 363.131 391.132 367.062 387.583 368.635C392.462 366.478 397.159 363.877 401.554 360.853C398.994 370.832 393.208 379.945 385.285 386.497C391.595 383.594 397.905 380.691 404.215 377.808C397.28 384.219 391.111 391.456 385.87 399.298H445.201L445.16 399.278Z" fill="#142A38"/>
<path d="M414.921 433.691C409.679 425.849 403.49 418.612 396.575 412.201C402.885 415.104 409.195 418.007 415.505 420.89C407.582 414.317 401.796 405.205 399.236 395.246C403.631 398.27 408.328 400.871 413.207 403.028C410.788 400.125 408.49 397.242 405.708 394.762C404.397 393.593 403.409 392.484 402.603 390.871C402.341 390.347 401.514 386.718 401.272 386.618C404.82 388.15 408.55 389.279 412.36 389.964C407.643 387.485 403.429 384.037 400.083 379.884C398.027 377.324 396.232 374.219 396.595 370.973C400.365 372.586 405.728 374.139 408.732 376.981C403.288 371.82 398.692 365.792 395.164 359.18C399.115 361.337 403.147 363.373 407.22 365.309C399.68 358.676 393.954 349.967 390.89 340.411C393.773 343.012 396.938 345.733 400.788 346.136C394.297 339.786 391.132 330.855 388.269 322.247C389.438 322.892 390.225 324.021 391.112 325.009C392.019 325.976 393.208 326.884 394.539 326.783C389.68 321.037 386.435 313.941 385.265 306.522C384.096 313.961 380.85 321.037 375.992 326.783C377.322 326.884 378.512 325.976 379.419 325.009C380.326 324.041 381.112 322.892 382.261 322.247C379.379 330.855 376.234 339.786 369.742 346.136C373.613 345.733 376.758 342.991 379.641 340.411C376.576 349.987 370.851 358.676 363.311 365.309C367.383 363.373 371.395 361.337 375.367 359.18C371.839 365.792 367.242 371.84 361.799 376.981C364.803 374.139 369.803 372.828 373.492 371.094C371.052 374.36 369.117 377.989 366.516 381.114C364.379 383.674 361.819 385.872 359.259 388.029C360.206 387.222 364.017 387.101 365.408 386.557C366.476 386.134 369.419 383.957 370.407 384.823C371.657 385.892 364.722 392.928 363.835 394.5C362.081 397.544 360.892 401.476 357.344 403.048C362.222 400.891 366.92 398.29 371.315 395.266C368.754 405.246 362.968 414.358 355.045 420.91C361.355 418.007 367.666 415.104 373.976 412.221C367.041 418.632 360.872 425.869 355.63 433.711H414.961L414.921 433.691Z" fill="#142A38"/>
<path d="M980.529 453.69C975.288 445.848 969.099 438.61 962.184 432.199C968.494 435.102 974.804 438.006 981.114 440.888C973.191 434.316 967.405 425.204 964.845 415.245C969.24 418.269 973.937 420.869 978.816 423.027C976.397 420.124 974.098 417.241 971.316 414.761C970.006 413.592 969.018 412.483 968.212 410.87C967.95 410.346 967.123 406.717 966.881 406.616C970.429 408.149 974.159 409.277 977.969 409.963C973.252 407.483 969.038 404.036 965.692 399.883C963.635 397.323 961.841 394.218 962.204 390.972C965.974 392.585 971.336 394.137 974.34 396.98C968.897 391.819 964.301 385.791 960.773 379.179C964.724 381.336 968.756 383.372 972.828 385.307C965.288 378.675 959.563 369.965 956.499 360.41C959.382 363.01 962.547 365.732 966.397 366.135C959.906 359.785 956.741 350.854 953.878 342.245C955.047 342.891 955.833 344.02 956.72 345.007C957.628 345.975 958.817 346.882 960.148 346.781C955.289 341.036 952.043 333.94 950.874 326.521C949.705 333.96 946.459 341.036 941.6 346.781C942.931 346.882 944.12 345.975 945.028 345.007C945.935 344.04 946.721 342.891 947.87 342.245C944.987 350.854 941.842 359.785 935.351 366.135C939.222 365.732 942.367 362.99 945.249 360.41C942.185 369.986 936.46 378.675 928.92 385.307C932.992 383.372 937.004 381.336 940.975 379.179C937.447 385.791 932.851 391.839 927.408 396.98C930.412 394.137 935.411 392.827 939.101 391.093C936.661 394.359 934.726 397.988 932.125 401.113C929.988 403.673 927.428 405.87 924.868 408.028C925.815 407.221 929.625 407.1 931.016 406.556C932.085 406.133 935.028 403.955 936.016 404.822C937.266 405.891 930.331 412.926 929.444 414.499C927.69 417.543 926.501 421.474 922.952 423.047C927.831 420.89 932.528 418.289 936.923 415.265C934.363 425.244 928.577 434.357 920.654 440.909C926.964 438.005 933.274 435.102 939.584 432.22C932.649 438.63 926.48 445.868 921.239 453.71H980.57L980.529 453.69Z" fill="#142A38"/>
<path d="M1208.34 383.614C1203.1 375.772 1196.91 368.534 1189.99 362.123C1196.3 365.026 1202.61 367.929 1208.92 370.812C1201 364.24 1195.21 355.128 1192.65 345.169C1197.05 348.193 1201.75 350.793 1206.62 352.95C1204.2 350.047 1201.91 347.165 1199.12 344.685C1197.81 343.516 1196.83 342.407 1196.02 340.794C1195.76 340.27 1194.93 336.641 1194.69 336.54C1198.24 338.072 1201.97 339.201 1205.78 339.887C1201.06 337.407 1196.85 333.96 1193.5 329.807C1191.44 327.246 1189.65 324.142 1190.01 320.896C1193.78 322.509 1199.14 324.061 1202.15 326.904C1196.71 321.743 1192.11 315.715 1188.58 309.102C1192.53 311.26 1196.56 313.296 1200.64 315.231C1193.1 308.598 1187.37 299.889 1184.31 290.333C1187.19 292.934 1190.35 295.656 1194.21 296.059C1187.71 289.709 1184.55 280.778 1181.69 272.169C1182.86 272.814 1183.64 273.943 1184.53 274.931C1185.44 275.899 1186.63 276.806 1187.96 276.705C1183.1 270.96 1179.85 263.863 1178.68 256.445C1177.51 263.884 1174.27 270.96 1169.41 276.705C1170.74 276.806 1171.93 275.899 1172.84 274.931C1173.74 273.964 1174.53 272.814 1175.68 272.169C1172.8 280.778 1169.65 289.709 1163.16 296.059C1167.03 295.656 1170.17 292.914 1173.06 290.333C1169.99 299.909 1164.27 308.598 1156.73 315.231C1160.8 313.296 1164.81 311.26 1168.78 309.102C1165.26 315.715 1160.66 321.763 1155.22 326.904C1158.22 324.061 1163.22 322.751 1166.91 321.017C1164.47 324.283 1162.53 327.912 1159.93 331.037C1157.8 333.597 1155.24 335.794 1152.68 337.951C1153.62 337.145 1157.43 337.024 1158.82 336.48C1159.89 336.056 1162.84 333.879 1163.82 334.746C1165.07 335.814 1158.14 342.85 1157.25 344.423C1155.5 347.467 1154.31 351.398 1150.76 352.971C1155.64 350.813 1160.34 348.213 1164.73 345.189C1162.17 355.168 1156.39 364.28 1148.46 370.832L1167.39 362.143C1160.46 368.554 1154.29 375.792 1149.05 383.634H1208.38L1208.34 383.614Z" fill="#142A38"/>
<path d="M1047.16 447.198C1041.92 439.356 1035.73 432.119 1028.81 425.708C1035.12 428.611 1041.43 431.514 1047.74 434.397C1039.82 427.825 1034.03 418.712 1031.47 408.753C1035.87 411.777 1040.57 414.378 1045.44 416.535C1043.03 413.632 1040.73 410.749 1037.95 408.269C1036.63 407.1 1035.65 405.991 1034.84 404.379C1034.58 403.854 1033.75 400.226 1033.51 400.125C1037.06 401.657 1040.79 402.786 1044.6 403.471C1039.88 400.992 1035.67 397.544 1032.32 393.391C1030.26 390.831 1028.47 387.726 1028.83 384.481C1032.6 386.093 1037.97 387.646 1040.97 390.488C1035.53 385.327 1030.93 379.3 1027.4 372.687C1031.35 374.844 1035.38 376.88 1039.46 378.816C1031.92 372.183 1026.19 363.474 1023.13 353.918C1026.01 356.519 1029.18 359.24 1033.03 359.644C1026.53 353.293 1023.37 344.362 1020.51 335.754C1021.68 336.399 1022.46 337.528 1023.35 338.516C1024.26 339.484 1025.45 340.391 1026.78 340.29C1021.92 334.544 1018.67 327.448 1017.5 320.029C1016.33 327.468 1013.09 334.544 1008.23 340.29C1009.56 340.391 1010.75 339.484 1011.66 338.516C1012.56 337.548 1013.35 336.399 1014.5 335.754C1011.62 344.362 1008.47 353.293 1001.98 359.644C1005.85 359.24 1009 356.499 1011.88 353.918C1008.81 363.494 1003.09 372.183 995.549 378.816C999.621 376.88 1003.63 374.844 1007.6 372.687C1004.08 379.3 999.48 385.348 994.037 390.488C997.04 387.646 1002.04 386.335 1005.73 384.602C1003.29 387.868 1001.35 391.496 998.754 394.621C996.617 397.181 994.057 399.379 991.496 401.536C992.444 400.73 996.254 400.609 997.645 400.064C998.714 399.641 1001.66 397.464 1002.64 398.331C1003.89 399.399 996.96 406.435 996.073 408.007C994.319 411.052 993.129 414.983 989.581 416.555C994.46 414.398 999.157 411.797 1003.55 408.773C1000.99 418.753 995.206 427.865 987.283 434.417C993.593 431.514 999.903 428.611 1006.21 425.728C999.278 432.139 993.109 439.376 987.868 447.219H1047.2L1047.16 447.198Z" fill="#142A38"/>
<path d="M1117.44 398.875C1112.17 391.033 1106 383.795 1099.09 377.384L1118.02 386.073C1110.1 379.501 1104.31 370.389 1101.75 360.43C1106.15 363.454 1110.84 366.054 1115.72 368.212C1113.3 365.309 1111 362.426 1108.22 359.946C1106.91 358.777 1105.92 357.668 1105.12 356.055C1104.86 355.531 1104.03 351.902 1103.79 351.801C1107.34 353.333 1111.07 354.462 1114.88 355.148C1110.16 352.668 1105.94 349.221 1102.6 345.068C1100.54 342.508 1098.75 339.403 1099.11 336.157C1102.88 337.77 1108.24 339.322 1111.25 342.165C1105.8 337.004 1101.21 330.976 1097.68 324.364C1101.63 326.521 1105.66 328.557 1109.73 330.492C1102.19 323.86 1096.47 315.15 1093.4 305.595C1096.29 308.195 1099.45 310.917 1103.3 311.32C1096.81 304.97 1093.65 296.039 1090.78 287.43C1091.95 288.076 1092.74 289.205 1093.63 290.192C1094.53 291.16 1095.72 292.067 1097.05 291.966C1092.2 286.221 1088.95 279.125 1087.78 271.706C1086.61 279.145 1083.37 286.221 1078.51 291.966C1079.84 292.067 1081.03 291.16 1081.93 290.192C1082.84 289.225 1083.63 288.076 1084.78 287.43C1081.89 296.039 1078.75 304.97 1072.26 311.32C1076.13 310.917 1079.27 308.175 1082.16 305.595C1079.09 315.171 1073.37 323.86 1065.83 330.492C1069.9 328.557 1073.91 326.521 1077.88 324.364C1074.35 330.976 1069.76 337.024 1064.31 342.165C1067.32 339.322 1072.34 338.012 1076.01 336.278C1073.57 339.544 1071.63 343.173 1069.03 346.298C1066.89 348.858 1064.33 351.055 1061.77 353.212C1062.72 352.406 1066.53 352.285 1067.92 351.741C1068.99 351.317 1071.93 349.14 1072.92 350.007C1074.17 351.076 1067.24 358.111 1066.35 359.684C1064.6 362.728 1063.41 366.659 1059.86 368.232C1064.74 366.075 1069.43 363.474 1073.83 360.45C1071.27 370.429 1065.48 379.541 1057.56 386.093L1076.49 377.404C1069.56 383.815 1063.39 391.053 1058.15 398.895H1117.48L1117.44 398.875Z" fill="#142A38"/>
<path d="M1167.53 368.574C1161.26 359.2 1153.89 350.551 1145.6 342.87C1153.14 346.338 1160.68 349.805 1168.24 353.273C1158.76 345.431 1151.85 334.524 1148.79 322.61C1154.05 326.218 1159.65 329.343 1165.5 331.924C1162.59 328.456 1159.87 325.009 1156.53 322.045C1154.95 320.654 1153.76 319.324 1152.82 317.388C1152.51 316.763 1151.51 312.409 1151.22 312.288C1155.46 314.122 1159.93 315.473 1164.47 316.3C1158.82 313.336 1153.8 309.203 1149.79 304.244C1147.33 301.2 1145.18 297.49 1145.62 293.579C1150.12 295.515 1156.53 297.369 1160.14 300.776C1153.62 294.628 1148.12 287.39 1143.93 279.487C1148.66 282.068 1153.46 284.507 1158.34 286.826C1149.31 278.903 1142.5 268.5 1138.83 257.049C1142.27 260.154 1146.04 263.42 1150.66 263.904C1142.9 256.303 1139.13 245.639 1135.68 235.337C1137.07 236.123 1138.02 237.474 1139.09 238.643C1140.16 239.813 1141.59 240.881 1143.18 240.76C1137.37 233.885 1133.5 225.418 1132.09 216.528C1130.68 225.418 1126.81 233.885 1121 240.76C1122.6 240.861 1124.01 239.792 1125.1 238.643C1126.17 237.474 1127.11 236.123 1128.5 235.337C1125.06 245.639 1121.29 256.303 1113.53 263.904C1118.14 263.42 1121.91 260.154 1125.36 257.049C1121.69 268.48 1114.86 278.883 1105.84 286.826C1110.72 284.507 1115.52 282.068 1120.26 279.487C1116.05 287.39 1110.54 294.628 1104.05 300.776C1107.64 297.389 1113.63 295.817 1118.04 293.74C1115.14 297.652 1112.82 301.986 1109.69 305.716C1107.13 308.78 1104.07 311.401 1101.03 313.981C1102.15 313.013 1106.73 312.872 1108.36 312.207C1109.65 311.703 1113.16 309.102 1114.33 310.131C1115.82 311.421 1107.54 319.828 1106.47 321.682C1104.37 325.331 1102.96 330.029 1098.71 331.903C1104.55 329.323 1110.16 326.218 1115.42 322.589C1112.36 334.504 1105.44 345.411 1095.97 353.253C1103.51 349.785 1111.05 346.318 1118.61 342.85C1110.32 350.531 1102.94 359.16 1096.67 368.554H1167.59L1167.53 368.574Z" fill="#142A38"/>
<path d="M239.952 312.167C233.682 302.792 226.303 294.144 218.017 286.463C225.557 289.93 233.097 293.398 240.657 296.865C231.182 289.023 224.267 278.116 221.203 266.202C226.464 269.811 232.069 272.935 237.915 275.516C235.012 272.048 232.291 268.601 228.944 265.637C227.372 264.246 226.182 262.916 225.235 260.98C224.932 260.356 223.924 256.001 223.642 255.88C227.876 257.715 232.351 259.065 236.887 259.892C231.242 256.928 226.223 252.796 222.211 247.836C219.751 244.792 217.594 241.083 218.038 237.172C222.533 239.107 228.944 240.962 232.553 244.369C226.041 238.22 220.537 230.982 216.344 223.08C221.082 225.66 225.88 228.1 230.759 230.418C221.727 222.495 214.913 212.092 211.244 200.642C214.691 203.746 218.461 207.012 223.078 207.496C215.316 199.896 211.546 189.231 208.099 178.929C209.49 179.716 210.437 181.066 211.506 182.236C212.574 183.405 214.006 184.473 215.598 184.352C209.792 177.478 205.921 169.011 204.51 160.12C203.099 169.011 199.228 177.478 193.422 184.352C195.015 184.453 196.426 183.385 197.515 182.236C198.583 181.066 199.531 179.716 200.922 178.929C197.474 189.231 193.704 199.896 185.943 207.496C190.56 207.012 194.329 203.746 197.777 200.642C194.108 212.072 187.273 222.475 178.262 230.418C183.141 228.1 187.939 225.66 192.676 223.08C188.463 230.982 182.959 238.22 176.468 244.369C180.056 240.982 186.044 239.409 190.459 237.333C187.556 241.244 185.237 245.578 182.113 249.308C179.552 252.372 176.488 254.993 173.444 257.573C174.573 256.606 179.149 256.465 180.782 255.799C182.072 255.295 185.58 252.695 186.749 253.723C188.241 255.013 179.955 263.42 178.887 265.275C176.79 268.924 175.379 273.621 171.125 275.496C176.972 272.915 182.576 269.811 187.838 266.182C184.774 278.096 177.859 289.003 168.384 296.845C175.923 293.378 183.463 289.91 191.023 286.443C182.737 294.124 175.359 302.752 169.089 312.147H240.012L239.952 312.167Z" fill="#142A38"/>
<path d="M112.278 275.637C106.009 266.262 98.6301 257.614 90.3444 249.933C97.8842 253.4 105.424 256.868 112.984 260.335C103.509 252.493 96.594 241.587 93.5296 229.672C98.7914 233.281 104.396 236.405 110.242 238.986C107.339 235.518 104.618 232.071 101.271 229.107C99.6986 227.716 98.5092 226.386 97.5616 224.451C97.2592 223.826 96.2512 219.471 95.969 219.35C100.223 221.185 104.678 222.535 109.214 223.362C103.569 220.398 98.5495 216.266 94.5376 211.306C92.0781 208.262 89.921 204.553 90.3645 200.642C94.8602 202.577 101.271 204.432 104.88 207.839C98.3681 201.69 92.8644 194.452 88.6711 186.55C93.4087 189.13 98.2067 191.57 103.085 193.888C94.0538 185.965 87.2397 175.563 83.5706 164.112C87.018 167.216 90.7879 170.482 95.4045 170.966C87.6429 163.366 83.873 152.701 80.4256 142.399C81.8167 143.186 82.7642 144.536 83.8327 145.706C84.9012 146.875 86.3325 147.943 87.9252 147.822C82.1191 140.948 78.2484 132.481 76.8372 123.59C75.426 132.481 71.5552 140.948 65.7492 147.822C67.3418 147.923 68.753 146.855 69.8416 145.706C70.9101 144.536 71.8576 143.186 73.2487 142.399C69.8013 152.701 66.0314 163.366 58.2698 170.966C62.8864 170.482 66.6564 167.216 70.1037 164.112C66.4346 175.542 59.6004 185.945 50.5888 193.888C55.4676 191.57 60.2657 189.13 65.0033 186.55C60.7898 194.452 55.2861 201.69 48.7946 207.839C52.3831 204.452 58.3706 202.879 62.7856 200.803C59.8826 204.714 57.5642 209.048 54.4394 212.778C51.8791 215.842 48.8148 218.463 45.7706 221.043C46.8996 220.076 51.4759 219.935 53.1088 219.269C54.3991 218.765 57.9069 216.165 59.0762 217.193C60.5681 218.483 52.2823 226.89 51.2138 228.745C49.1172 232.394 47.706 237.091 43.4522 238.966C49.2986 236.385 54.9031 233.281 60.1648 229.652C57.1005 241.566 50.1856 252.473 40.7104 260.315C48.2503 256.848 55.7901 253.38 63.3501 249.913C55.0644 257.594 47.6858 266.222 41.416 275.617H112.339L112.278 275.637Z" fill="#142A38"/>
<path d="M1302.99 292.551C1296.72 283.177 1289.34 274.528 1281.05 266.847C1288.59 270.315 1296.13 273.782 1303.69 277.25C1294.22 269.407 1287.3 258.501 1284.24 246.586C1289.5 250.195 1295.11 253.32 1300.95 255.9C1298.05 252.433 1295.33 248.985 1291.98 246.022C1290.41 244.631 1289.22 243.3 1288.27 241.365C1287.97 240.74 1286.96 236.385 1286.68 236.264C1290.91 238.099 1295.39 239.45 1299.92 240.276C1294.28 237.313 1289.26 233.18 1285.25 228.22C1282.79 225.176 1280.63 221.467 1281.07 217.556C1285.57 219.491 1291.98 221.346 1295.59 224.753C1289.08 218.604 1283.57 211.367 1279.38 203.464C1284.12 206.044 1288.92 208.484 1293.8 210.802C1284.76 202.879 1277.95 192.477 1274.28 181.026C1277.73 184.131 1281.5 187.396 1286.11 187.88C1278.35 180.28 1274.58 169.615 1271.14 159.314C1272.53 160.1 1273.47 161.451 1274.54 162.62C1275.61 163.789 1277.04 164.858 1278.64 164.737C1272.83 157.862 1268.96 149.395 1267.55 140.504C1266.14 149.395 1262.27 157.862 1256.46 164.737C1258.05 164.837 1259.46 163.769 1260.55 162.62C1261.62 161.451 1262.57 160.1 1263.96 159.314C1260.51 169.615 1256.74 180.28 1248.98 187.88C1253.6 187.396 1257.37 184.131 1260.81 181.026C1257.14 192.457 1250.31 202.859 1241.3 210.802C1246.18 208.484 1250.98 206.044 1255.71 203.464C1251.5 211.367 1246 218.604 1239.5 224.753C1243.09 221.366 1249.08 219.794 1253.5 217.717C1250.59 221.628 1248.27 225.963 1245.15 229.692C1242.59 232.757 1239.52 235.377 1236.48 237.958C1237.61 236.99 1242.19 236.849 1243.82 236.184C1245.11 235.68 1248.62 233.079 1249.79 234.107C1251.28 235.397 1242.99 243.804 1241.92 245.659C1239.83 249.308 1238.42 254.005 1234.16 255.88C1240.01 253.3 1245.61 250.195 1250.87 246.566C1247.81 258.481 1240.9 269.387 1231.42 277.229C1238.96 273.762 1246.5 270.294 1254.06 266.827C1245.77 274.508 1238.4 283.136 1232.13 292.531H1303.05L1302.99 292.551Z" fill="#142A38"/>
<path d="M1413.51 199.613C1407.24 190.239 1399.86 181.59 1391.57 173.909C1399.11 177.377 1406.65 180.845 1414.21 184.312C1404.74 176.47 1397.82 165.563 1394.76 153.649C1400.02 157.257 1405.62 160.382 1411.47 162.963C1408.57 159.495 1405.85 156.048 1402.5 153.084C1400.93 151.693 1399.74 150.363 1398.79 148.427C1398.49 147.802 1397.48 143.448 1397.2 143.327C1401.43 145.161 1405.91 146.512 1410.44 147.339C1404.8 144.375 1399.78 140.242 1395.77 135.283C1393.31 132.239 1391.15 128.529 1391.59 124.618C1396.09 126.554 1402.5 128.408 1406.11 131.815C1399.6 125.667 1394.09 118.429 1389.9 110.526C1394.64 113.107 1399.43 115.546 1404.31 117.865C1395.28 109.942 1388.47 99.5392 1384.8 88.0884C1388.25 91.193 1392.02 94.4589 1396.63 94.9428C1388.87 87.3425 1385.1 76.6778 1381.65 66.376C1383.04 67.1623 1383.99 68.513 1385.06 69.6823C1386.13 70.8516 1387.56 71.92 1389.15 71.7991C1383.35 64.9245 1379.48 56.4573 1378.06 47.5668C1376.65 56.4573 1372.78 64.9245 1366.98 71.7991C1368.57 71.8999 1369.98 70.8314 1371.07 69.6823C1372.14 68.513 1373.09 67.1623 1374.48 66.376C1371.03 76.6778 1367.26 87.3425 1359.5 94.9428C1364.11 94.4589 1367.88 91.193 1371.33 88.0884C1367.66 99.5191 1360.83 109.922 1351.82 117.865C1356.7 115.546 1361.49 113.107 1366.23 110.526C1362.02 118.429 1356.51 125.667 1350.02 131.815C1353.61 128.429 1359.6 126.856 1364.01 124.78C1361.11 128.691 1358.79 133.025 1355.67 136.755C1353.11 139.819 1350.04 142.44 1347 145.02C1348.13 144.053 1352.7 143.911 1354.34 143.246C1355.63 142.742 1359.13 140.141 1360.3 141.17C1361.8 142.46 1353.51 150.867 1352.44 152.721C1350.34 156.37 1348.93 161.068 1344.68 162.942C1350.53 160.362 1356.13 157.257 1361.39 153.629C1358.33 165.543 1351.41 176.45 1341.94 184.292C1349.48 180.824 1357.02 177.357 1364.58 173.889C1356.29 181.57 1348.91 190.199 1342.64 199.593H1413.57L1413.51 199.613Z" fill="#142A38"/>
<path d="M441.29 449.033C436.048 441.191 429.859 433.953 422.944 427.542C429.254 430.445 435.564 433.349 441.874 436.231C433.952 429.659 428.166 420.547 425.605 410.588C430 413.612 434.697 416.213 439.576 418.37C437.157 415.467 434.859 412.584 432.077 410.104C430.766 408.935 429.778 407.826 428.972 406.213C428.71 405.689 427.883 402.06 427.641 401.959C431.19 403.492 434.919 404.621 438.729 405.306C434.012 402.826 429.799 399.379 426.452 395.226C424.396 392.666 422.601 389.561 422.964 386.315C426.734 387.928 432.097 389.48 435.101 392.323C429.657 387.162 425.061 381.134 421.533 374.522C425.484 376.679 429.516 378.715 433.589 380.65C426.049 374.018 420.323 365.309 417.259 355.753C420.142 358.353 423.307 361.075 427.158 361.478C420.666 355.128 417.501 346.197 414.638 337.589C415.808 338.234 416.594 339.363 417.481 340.35C418.388 341.318 419.577 342.225 420.908 342.125C416.049 336.379 412.804 329.283 411.634 321.864C410.465 329.303 407.219 336.379 402.361 342.125C403.691 342.225 404.881 341.318 405.788 340.35C406.695 339.383 407.481 338.234 408.631 337.589C405.748 346.197 402.603 355.128 396.111 361.478C399.982 361.075 403.127 358.333 406.01 355.753C402.945 365.329 397.22 374.018 389.68 380.65C393.752 378.715 397.764 376.679 401.736 374.522C398.208 381.134 393.611 387.182 388.168 392.323C391.172 389.48 396.192 388.17 399.861 386.436C397.422 389.702 395.486 393.331 392.886 396.456C390.749 399.016 388.188 401.213 385.628 403.371C386.576 402.564 390.386 402.443 391.777 401.899C392.845 401.476 395.789 399.298 396.777 400.165C398.026 401.234 391.091 408.269 390.204 409.842C388.45 412.886 387.261 416.817 383.713 418.39C388.592 416.233 393.289 413.632 397.684 410.608C395.123 420.587 389.337 429.7 381.415 436.252C387.725 433.349 394.035 430.445 400.345 427.563C393.41 433.973 387.241 441.211 381.999 449.053H441.33L441.29 449.033Z" fill="#142A38"/>
<path d="M533.381 462.46C528.139 454.617 521.95 447.38 515.035 440.969C521.345 443.872 527.655 446.775 533.965 449.658C526.042 443.086 520.256 433.973 517.696 424.014C522.091 427.038 526.788 429.639 531.667 431.796C529.248 428.893 526.949 426.01 524.167 423.531C522.857 422.361 521.869 421.253 521.063 419.64C520.801 419.116 519.974 415.487 519.732 415.386C523.28 416.918 527.01 418.047 530.82 418.732C526.103 416.253 521.889 412.805 518.543 408.652C516.486 406.092 514.692 402.988 515.055 399.742C518.825 401.355 524.188 402.907 527.191 405.749C521.748 400.588 517.152 394.561 513.624 387.948C517.575 390.105 521.607 392.141 525.679 394.077C518.14 387.444 512.414 378.735 509.35 369.179C512.233 371.78 515.398 374.501 519.248 374.905C512.757 368.554 509.592 359.623 506.729 351.015C507.898 351.66 508.685 352.789 509.572 353.777C510.479 354.745 511.668 355.652 512.999 355.551C508.14 349.805 504.894 342.709 503.725 335.29C502.556 342.729 499.31 349.805 494.452 355.551C495.782 355.652 496.972 354.745 497.879 353.777C498.786 352.809 499.572 351.66 500.721 351.015C497.838 359.623 494.693 368.554 488.202 374.905C492.073 374.501 495.218 371.76 498.101 369.179C495.036 378.755 489.311 387.444 481.771 394.077C485.843 392.141 489.855 390.105 493.827 387.948C490.299 394.561 485.702 400.609 480.259 405.749C483.263 402.907 488.283 401.597 491.952 399.863C489.512 403.129 487.577 406.757 484.976 409.882C482.839 412.443 480.279 414.64 477.719 416.797C478.666 415.991 482.477 415.87 483.868 415.325C484.936 414.902 487.879 412.725 488.867 413.592C490.117 414.66 483.182 421.696 482.295 423.268C480.541 426.313 479.352 430.244 475.804 431.816C480.682 429.659 485.38 427.059 489.774 424.035C487.214 434.014 481.428 443.126 473.505 449.678C479.815 446.775 486.125 443.872 492.436 440.989C485.501 447.4 479.332 454.637 474.09 462.48H533.421L533.381 462.46Z" fill="#142A38"/>
<path d="M601.642 478.567C596.401 470.725 590.212 463.488 583.297 457.077C589.607 459.98 595.917 462.883 602.227 465.766C594.304 459.194 588.518 450.081 585.958 440.122C590.353 443.146 595.05 445.747 599.929 447.904C597.51 445.001 595.211 442.118 592.429 439.638C591.119 438.469 590.131 437.36 589.325 435.748C589.062 435.223 588.236 431.595 587.994 431.494C591.542 433.026 595.272 434.155 599.082 434.84C594.365 432.361 590.151 428.913 586.805 424.76C584.748 422.2 582.954 419.095 583.317 415.85C587.087 417.462 592.449 419.015 595.453 421.857C590.01 416.696 585.413 410.668 581.885 404.056C585.837 406.213 589.869 408.249 593.941 410.185C586.401 403.552 580.676 394.843 577.612 385.287C580.494 387.888 583.66 390.609 587.51 391.012C581.019 384.662 577.854 375.731 574.991 367.123C576.16 367.768 576.946 368.897 577.833 369.885C578.741 370.853 579.93 371.76 581.261 371.659C576.402 365.913 573.156 358.817 571.987 351.398C570.818 358.837 567.572 365.913 562.713 371.659C564.044 371.76 565.233 370.853 566.141 369.885C567.048 368.917 567.834 367.768 568.983 367.123C566.1 375.731 562.955 384.662 556.464 391.012C560.334 390.609 563.479 387.868 566.362 385.287C563.298 394.863 557.573 403.552 550.033 410.185C554.105 408.249 558.117 406.213 562.088 404.056C558.56 410.668 553.964 416.717 548.521 421.857C551.525 419.015 556.544 417.704 560.213 415.971C557.774 419.237 555.839 422.865 553.238 425.99C551.101 428.55 548.541 430.748 545.981 432.905C546.928 432.099 550.738 431.978 552.129 431.433C553.198 431.01 556.141 428.833 557.129 429.7C558.379 430.768 551.444 437.804 550.557 439.376C548.803 442.421 547.614 446.352 544.065 447.924C548.944 445.767 553.641 443.166 558.036 440.142C555.476 450.122 549.69 459.234 541.767 465.786C548.077 462.883 554.387 459.98 560.697 457.097C553.762 463.508 547.593 470.745 542.352 478.588H601.683L601.642 478.567Z" fill="#142A38"/>
<path d="M1537.55 96.8781C1308.9 140.424 1272.59 318.275 1047.56 329.162C822.535 340.048 811.649 441.675 670.085 438.046C528.542 434.417 467.76 521.528 467.76 521.528H1824.27L1537.53 96.8781H1537.55Z" fill="#224C59"/>
<mask id="mask1_5_5903" style="mask-type:luminance" maskUnits="userSpaceOnUse" x="467" y="96" width="1358" height="426">
<path d="M1537.55 96.8781C1308.9 140.424 1272.59 318.275 1047.56 329.162C822.535 340.048 811.649 441.675 670.085 438.046C528.542 434.417 467.76 521.528 467.76 521.528H1824.27L1537.53 96.8781H1537.55Z" fill="white"/>
</mask>
<g mask="url(#mask1_5_5903)">
<g style="mix-blend-mode:overlay" opacity="0.41">
<path d="M1325.81 217.132C1329.74 216.487 1333.69 215.822 1337.62 215.177C1321.88 224.39 1306.27 234.067 1292.55 246.082C1266.86 268.581 1245.25 300.595 1211.52 305.857C1253.66 294.708 1294.02 276.867 1330.63 253.219C1326.45 260.517 1322.28 267.815 1318.09 275.113C1380.58 244.066 1444.39 212.576 1513.42 202.295C1534.26 199.19 1555.53 198.021 1575.73 191.973C1577.77 191.368 1559.85 166.692 1557.91 164.757C1549.48 156.33 1539.32 150 1528.24 145.726C1506.48 137.339 1485.5 141.956 1463.12 145.343C1411.03 153.245 1361.77 178.445 1325.83 217.153L1325.81 217.132Z" fill="white"/>
</g>
<g style="mix-blend-mode:overlay" opacity="0.41">
<path d="M927.367 373.151C927.77 370.55 929.665 368.252 932.125 367.365C913.739 375.53 895.333 383.715 876.947 391.879C900.171 386.517 923.617 382.142 947.205 378.755C932.427 385.771 918.416 394.379 905.494 404.419C956.498 382.223 1013.07 377.284 1068.49 372.606C1060.52 372.687 1052.54 371.236 1045.12 368.353C1063.27 371.397 1081.67 364.26 1097.32 354.583C1112.96 344.907 1126.89 332.589 1142.88 323.497C1109.41 342.528 1076.35 351.721 1038.03 353.132C1000.75 354.503 960.208 352.446 927.347 373.171L927.367 373.151Z" fill="white"/>
</g>
<g style="mix-blend-mode:overlay" opacity="0.41">
<path d="M1253.13 316.138C1249.65 318.275 1246.16 320.412 1242.67 322.549C1252.25 322.106 1261.72 319.444 1270.13 314.848C1240.73 330.936 1213.98 348.011 1181.89 358.958C1166.1 364.341 1149.93 368.635 1133.54 371.82C1125.92 373.292 1113.18 377.848 1106.11 374.259C1115.76 360.893 1141.45 353.777 1155.9 346.862C1169.85 340.169 1183.64 333.597 1198.62 329.444C1216.64 324.464 1235.75 323.356 1253.13 316.138Z" fill="white"/>
</g>
<g style="mix-blend-mode:multiply" opacity="0.35">
<path d="M1539.57 261.726C1494.02 267.27 1448.44 283.862 1415.94 316.279C1410.68 321.541 1405.72 327.226 1399.6 331.419C1391.53 336.943 1381.87 339.604 1372.32 341.721C1341.05 348.676 1308.96 350.874 1277.22 355.289C1227.41 362.244 1178.36 374.763 1131.31 392.524C1115.34 398.552 1099.43 405.225 1082.58 407.927C1063.67 410.931 1044.38 408.814 1025.22 409.177C965.974 410.346 908.538 435.626 849.388 432.078C815.197 430.022 782.417 418.43 749.697 408.269C745.282 406.898 740.524 405.548 736.089 406.919C724.558 410.507 725.727 427.704 732.158 437.945C748.246 463.609 779.07 475.281 808 484.192C1055.5 560.397 1327.54 554.53 1571.52 467.721C1609.52 454.194 1648.61 437.501 1673.59 405.83C1693.87 380.106 1746.31 269.931 1700.36 249.671C1683.67 242.312 1656.74 255.074 1640.02 257.654C1606.82 262.775 1572.99 257.614 1539.53 261.686L1539.57 261.726Z" fill="#285669"/>
</g>
</g>
<path d="M-110.248 198.505C107.521 154.959 223.663 234.793 328.918 321.904C434.173 409.015 495.883 397 564.83 392.121C633.797 387.243 720.909 392.121 774.212 427.159C830.075 463.871 1046.49 464.576 1062.08 459.819C1077.66 455.061 989.48 506.086 989.48 506.086H-128.392L-110.248 198.505Z" fill="#285669"/>
<mask id="mask2_5_5903" style="mask-type:luminance" maskUnits="userSpaceOnUse" x="-129" y="186" width="1193" height="321">
<path d="M-110.248 198.505C107.521 154.959 223.663 234.793 328.918 321.904C434.173 409.015 495.883 397 564.83 392.121C633.797 387.243 720.909 392.121 774.212 427.159C830.075 463.871 1046.49 464.576 1062.08 459.819C1077.66 455.061 989.48 506.086 989.48 506.086H-128.392L-110.248 198.505Z" fill="white"/>
</mask>
<g mask="url(#mask2_5_5903)">
<g style="mix-blend-mode:overlay" opacity="0.41">
<path d="M123.407 236.264C148.284 244.691 174.25 254.509 190.903 274.851C186.951 275.818 183 276.806 179.049 277.774C210.438 291.684 241.827 305.574 273.216 319.485C214.752 335.673 155.28 298.337 94.6789 295.555C74.1359 294.607 53.6331 297.672 33.0699 298.438C-2.7947 299.768 -38.498 294.083 -74.2619 291.12C-84.1806 290.293 -94.2808 289.648 -103.554 286.06C-112.828 282.471 -121.356 275.375 -123.916 265.758C-127.847 251.001 -117.021 236.547 -105.671 226.326C-73.7377 197.557 -46.6427 198.384 -4.68973 203.807C39.118 209.452 81.6757 222.132 123.407 236.264Z" fill="white"/>
</g>
<g style="mix-blend-mode:overlay" opacity="0.41">
<path d="M350.469 373.675C348.937 373.131 347.405 372.586 345.873 372.022C325.571 364.663 304.363 359.603 284.626 351.076C297.932 372.989 323.717 383.392 347.747 392.363C334.059 395.145 320.35 397.927 306.661 400.73C320.995 397.806 341.699 405.044 356.678 405.487C377.241 406.112 397.079 403.068 417.582 402.524C445.685 401.778 473.203 409.64 500.822 414.922C528.441 420.204 557.936 422.744 583.882 411.898C562.794 412.705 536.143 416.132 515.801 410.669C516.184 408.632 521.144 405.911 521.144 405.649C521.144 405.81 464.292 400.871 459.131 400.508C440.181 399.157 422.077 391.92 403.833 386.335C406.433 389.057 409.739 391.133 413.328 392.283C392.079 387.182 371.113 380.973 350.509 373.695L350.469 373.675Z" fill="white"/>
</g>
<g style="mix-blend-mode:overlay" opacity="0.41">
<path d="M744.174 425.184C740.565 423.228 736.17 422.744 732.219 423.914C745.605 426.172 758.447 431.574 769.414 439.578C761.128 433.53 743.327 432.038 733.368 429.316C720.385 425.768 707.361 422.402 694.237 419.478C668.17 413.692 642.164 410.427 615.553 408.834C657.99 397.242 704.499 408.955 744.174 425.204V425.184Z" fill="white"/>
</g>
<g style="mix-blend-mode:multiply" opacity="0.35">
<path d="M126.108 344.826C123.508 348.737 118.629 350.995 113.952 350.491C165.541 361.72 216.707 374.885 267.309 389.984C202.031 390.872 136.733 391.779 71.4547 392.666C72.4627 396.355 73.4706 400.044 74.4787 403.734C41.8396 406.798 9.48282 397.121 -21.866 387.565C-35.2119 383.493 -54.384 374.683 -47.7111 356.942C-42.1671 342.225 -23.4586 344.04 -10.4353 343.415C35.0255 341.177 80.7081 341.802 126.108 344.846V344.826Z" fill="#285669"/>
</g>
<g style="mix-blend-mode:multiply" opacity="0.35">
<path d="M625.673 429.619C626.097 436.413 617.085 439.034 610.291 439.376C585.192 440.626 560.093 441.876 534.994 443.146C523.079 443.751 511.104 444.336 499.23 443.106C490.541 442.219 481.953 440.344 473.244 439.638C460.623 438.61 447.943 440.022 435.363 441.574C404.962 445.303 374.641 449.779 344.461 455.021C471.59 462.379 598.719 469.737 725.848 477.096C742.42 478.063 759.798 478.87 774.857 471.874C781.49 468.79 787.578 464.234 794.775 462.903C799.009 462.117 803.585 462.198 807.839 462.016C796.529 456.633 778.728 458.226 766.188 456.734C749.96 454.799 733.771 452.46 717.663 449.739C708.813 448.247 626.036 435.808 625.653 429.639L625.673 429.619Z" fill="#285669"/>
</g>
</g>
<path d="M113.831 499.493C102.964 483.245 90.1829 468.266 75.829 454.98C88.8927 460.988 101.956 466.996 115.02 472.983C98.6098 459.395 86.6348 440.505 81.3125 419.861C90.4248 426.111 100.142 431.514 110.262 435.989C105.242 429.982 100.505 424.014 94.7391 418.894C92.0175 416.495 89.9612 414.156 88.3282 410.83C87.804 409.761 86.0702 402.221 85.5662 402C92.9246 405.185 100.646 407.524 108.529 408.955C98.7509 403.834 90.0418 396.657 83.1269 388.069C78.8731 382.787 75.1435 376.356 75.8895 369.603C83.6914 372.949 94.7995 376.175 101.009 382.061C89.7394 371.397 80.2037 358.878 72.9259 345.189C81.1311 349.644 89.4572 353.878 97.884 357.89C82.26 344.161 70.4261 326.138 64.0757 306.32C70.0431 311.703 76.5951 317.348 84.5784 318.195C71.1317 305.03 64.5999 286.564 58.6325 268.722C61.0315 270.073 62.6645 272.411 64.5394 274.427C66.4143 276.443 68.8738 278.298 71.6156 278.117C61.5759 266.222 54.8424 251.526 52.4232 236.143C49.9839 251.526 43.2706 266.202 33.2309 278.117C35.9727 278.318 38.4322 276.463 40.3071 274.427C42.182 272.411 43.8149 270.052 46.2139 268.722C40.2466 286.564 33.7147 305.05 20.268 318.195C28.2715 317.348 34.8034 311.703 40.7707 306.32C34.4002 326.138 22.5864 344.161 6.96242 357.89C15.3893 353.878 23.7154 349.644 31.9205 345.189C24.6427 358.898 15.107 371.397 3.83761 382.061C10.0469 376.195 20.4293 373.473 28.0699 369.885C23.0299 376.638 19.0181 384.158 13.6152 390.629C9.18002 395.952 3.87795 400.468 -1.40397 404.963C0.551549 403.31 8.45426 403.028 11.317 401.899C13.5346 401.012 19.6028 396.536 21.6591 398.29C24.2597 400.508 9.90579 415.084 8.05107 418.309C4.40211 424.619 1.96274 432.744 -5.41582 435.989C4.7045 431.534 14.4015 426.131 23.5339 419.861C18.2319 440.505 6.25681 459.375 -10.1736 472.983C2.8901 466.975 15.9538 460.968 29.0175 454.98C14.6635 468.266 1.88209 483.245 -8.98415 499.493H113.851H113.831Z" fill="#142A38"/>
<path d="M546.625 630.231C535.759 613.982 522.978 599.003 508.624 585.718C521.687 591.726 534.751 597.733 547.815 603.721C531.404 590.133 519.429 571.243 514.107 550.599C523.22 556.849 532.937 562.252 543.057 566.727C538.037 560.719 533.3 554.752 527.534 549.631C524.812 547.232 522.756 544.894 521.123 541.567C520.599 540.499 518.865 532.959 518.361 532.737C525.719 535.923 533.441 538.261 541.323 539.693C531.546 534.572 522.836 527.395 515.922 518.807C511.668 513.525 507.938 507.094 508.684 500.34C516.486 503.687 527.594 506.912 533.804 512.799C522.534 502.134 512.998 489.615 505.721 475.926C513.926 480.382 522.252 484.615 530.679 488.627C515.055 474.898 503.221 456.875 496.87 437.058C502.838 442.441 509.39 448.085 517.373 448.932C503.926 435.768 497.395 417.301 491.427 399.46C493.826 400.81 495.459 403.149 497.334 405.165C499.209 407.181 501.668 409.036 504.41 408.854C494.371 396.96 487.637 382.263 485.218 366.881C482.779 382.263 476.065 396.94 466.026 408.854C468.767 409.036 471.227 407.201 473.102 405.165C474.977 403.149 476.61 400.79 479.009 399.46C473.041 417.301 466.509 435.788 453.063 448.932C461.066 448.085 467.598 442.441 473.565 437.058C467.195 456.875 455.381 474.898 439.757 488.627C448.184 484.615 456.51 480.382 464.715 475.926C457.437 489.635 447.902 502.134 436.632 512.799C442.842 506.933 453.224 504.211 460.865 500.622C455.825 507.376 451.813 514.896 446.41 521.367C441.975 526.689 436.673 531.205 431.391 535.701C433.346 534.048 441.249 533.765 444.112 532.637C446.329 531.749 452.397 527.274 454.454 529.028C457.054 531.246 442.7 545.821 440.846 549.047C437.197 555.357 434.757 563.481 427.379 566.727C437.499 562.272 447.196 556.869 456.329 550.599C451.027 571.243 439.051 590.113 422.621 603.721C435.685 597.713 448.748 591.705 461.812 585.718C447.458 599.003 434.677 613.982 423.811 630.231H546.645H546.625Z" fill="#142A38"/>
<path d="M292.972 530.459C284.243 517.416 274.002 505.4 262.49 494.756C272.974 499.574 283.457 504.392 293.94 509.211C280.776 498.304 271.159 483.164 266.905 466.592C274.223 471.612 282.005 475.947 290.13 479.515C286.098 474.697 282.308 469.899 277.671 465.806C275.494 463.871 273.84 462.016 272.53 459.335C272.107 458.468 270.716 452.42 270.312 452.259C276.199 454.819 282.408 456.694 288.739 457.823C280.896 453.71 273.921 447.965 268.357 441.07C264.95 436.836 261.946 431.675 262.551 426.252C268.821 428.933 277.711 431.514 282.711 436.252C273.659 427.704 266.018 417.664 260.172 406.677C266.744 410.245 273.437 413.652 280.191 416.858C267.651 405.85 258.176 391.375 253.056 375.489C257.854 379.804 263.095 384.34 269.506 385.025C258.72 374.461 253.479 359.644 248.701 345.33C250.636 346.419 251.947 348.293 253.439 349.906C254.93 351.519 256.906 353.011 259.124 352.87C251.06 343.314 245.677 331.54 243.721 319.203C241.766 331.54 236.383 343.314 228.319 352.87C230.517 353.031 232.492 351.539 234.004 349.906C235.496 348.293 236.807 346.398 238.742 345.33C233.964 359.644 228.722 374.461 217.937 385.025C224.348 384.34 229.589 379.824 234.387 375.489C229.287 391.375 219.792 405.83 207.252 416.858C214.026 413.652 220.699 410.245 227.271 406.677C221.424 417.664 213.784 427.704 204.732 436.252C209.712 431.554 218.038 429.357 224.166 426.494C220.134 431.917 216.909 437.945 212.574 443.126C209.006 447.4 204.752 451.009 200.519 454.617C202.091 453.287 208.441 453.065 210.72 452.158C212.494 451.452 217.372 447.844 219.025 449.255C221.102 451.049 209.591 462.722 208.099 465.322C205.175 470.382 203.22 476.914 197.293 479.515C205.417 475.947 213.199 471.612 220.517 466.592C216.263 483.164 206.647 498.304 193.483 509.211C203.966 504.392 214.449 499.574 224.932 494.756C213.421 505.421 203.18 517.436 194.45 530.459H292.992H292.972Z" fill="#142A38"/>
<path d="M223.965 473.447C215.235 460.403 204.994 448.388 193.483 437.743C203.966 442.562 214.449 447.38 224.932 452.198C211.768 441.292 202.152 426.151 197.898 409.58C205.216 414.6 212.998 418.934 221.122 422.502C217.09 417.684 213.3 412.886 208.663 408.794C206.486 406.858 204.833 405.004 203.522 402.322C203.099 401.455 201.708 395.407 201.305 395.246C207.192 397.806 213.401 399.681 219.731 400.81C211.889 396.698 204.913 390.952 199.349 384.057C195.942 379.824 192.938 374.663 193.543 369.24C199.813 371.921 208.704 374.501 213.703 379.239C204.651 370.691 197.011 360.652 191.164 349.664C197.737 353.233 204.43 356.64 211.183 359.845C198.644 348.838 189.169 334.363 184.048 318.477C188.846 322.791 194.088 327.327 200.498 328.013C189.713 317.449 184.471 302.631 179.693 288.317C181.629 289.406 182.939 291.281 184.431 292.894C185.923 294.507 187.898 295.998 190.116 295.857C182.052 286.302 176.669 274.528 174.714 262.19C172.758 274.528 167.376 286.302 159.312 295.857C161.509 296.019 163.485 294.527 164.997 292.894C166.489 291.281 167.799 289.386 169.734 288.317C164.956 302.631 159.715 317.449 148.929 328.013C155.34 327.327 160.582 322.811 165.38 318.477C160.279 334.363 150.784 348.818 138.244 359.845C145.018 356.64 151.691 353.233 158.263 349.664C152.417 360.652 144.776 370.691 135.724 379.239C140.704 374.542 149.03 372.344 155.159 369.482C151.127 374.905 147.901 380.933 143.567 386.114C139.998 390.388 135.745 393.996 131.511 397.605C133.083 396.274 139.434 396.053 141.712 395.145C143.486 394.44 148.365 390.831 150.018 392.242C152.094 394.037 140.583 405.709 139.091 408.31C136.168 413.37 134.212 419.902 128.285 422.502C136.41 418.934 144.192 414.6 151.51 409.58C147.256 426.151 137.64 441.292 124.475 452.198C134.958 447.38 145.442 442.562 155.925 437.743C144.413 448.408 134.172 460.423 125.443 473.447H223.985H223.965Z" fill="#142A38"/>
<path d="M173.746 530.6C165.017 517.557 154.776 505.541 143.264 494.897C153.747 499.715 164.231 504.533 174.714 509.352C161.549 498.445 151.933 483.305 147.679 466.733C154.997 471.753 162.779 476.088 170.904 479.656C166.872 474.838 163.082 470.04 158.445 465.947C156.267 464.012 154.614 462.157 153.304 459.476C152.881 458.609 151.49 452.561 151.086 452.4C156.973 454.96 163.182 456.835 169.513 457.964C161.67 453.851 154.695 448.106 149.131 441.211C145.724 436.977 142.72 431.816 143.325 426.393C149.595 429.075 158.485 431.655 163.485 436.393C154.433 427.845 146.792 417.805 140.946 406.818C147.518 410.386 154.211 413.793 160.965 416.999C148.425 405.991 138.95 391.516 133.829 375.63C138.627 379.945 143.869 384.481 150.28 385.166C139.494 374.602 134.253 359.785 129.475 345.471C131.41 346.56 132.721 348.435 134.212 350.047C135.704 351.66 137.68 353.152 139.898 353.011C131.834 343.455 126.451 331.682 124.495 319.344C122.54 331.682 117.157 343.455 109.093 353.011C111.291 353.172 113.266 351.68 114.778 350.047C116.29 348.414 117.58 346.54 119.516 345.471C114.738 359.785 109.496 374.602 98.7107 385.166C105.122 384.481 110.363 379.965 115.161 375.63C110.061 391.516 100.565 405.971 88.0258 416.999C94.7996 413.793 101.473 410.386 108.045 406.818C102.198 417.805 94.5577 427.845 85.5058 436.393C90.4854 431.695 98.8115 429.498 104.94 426.635C100.908 432.058 97.6825 438.086 93.3481 443.267C89.7798 447.541 85.526 451.15 81.2924 454.758C82.8649 453.428 89.2153 453.206 91.4934 452.299C93.2674 451.593 98.1462 447.985 99.7993 449.396C101.876 451.19 90.3644 462.863 88.8726 465.463C85.9494 470.524 83.9938 477.055 78.0668 479.656C86.1913 476.088 93.9731 471.753 101.291 466.733C97.0374 483.305 87.4211 498.445 74.2566 509.352C84.7398 504.533 95.223 499.715 105.706 494.897C94.1948 505.562 83.9536 517.577 75.2243 530.6H173.766H173.746Z" fill="#142A38"/>
<path d="M1113.2 563.844C1104.47 550.801 1094.23 538.785 1082.72 528.141C1093.2 532.959 1103.69 537.777 1114.17 542.596C1101.01 531.689 1091.39 516.549 1087.14 499.977C1094.45 504.997 1102.23 509.332 1110.36 512.9C1106.33 508.082 1102.54 503.284 1097.9 499.191C1095.72 497.256 1094.07 495.401 1092.76 492.72C1092.34 491.853 1090.95 485.805 1090.54 485.644C1096.43 488.204 1102.64 490.079 1108.97 491.208C1101.13 487.095 1094.15 481.349 1088.59 474.455C1085.18 470.221 1082.18 465.06 1082.78 459.637C1089.05 462.318 1097.94 464.899 1102.94 469.636C1093.89 461.089 1086.25 451.049 1080.4 440.062C1086.97 443.63 1093.67 447.037 1100.42 450.243C1087.88 439.235 1078.41 424.76 1073.29 408.874C1078.08 413.189 1083.32 417.724 1089.74 418.41C1078.95 407.846 1073.71 393.028 1068.93 378.715C1070.87 379.804 1072.18 381.678 1073.67 383.291C1075.16 384.904 1077.14 386.396 1079.35 386.255C1071.29 376.699 1065.91 364.925 1063.95 352.588C1062 364.925 1056.61 376.699 1048.55 386.255C1050.75 386.416 1052.72 384.924 1054.23 383.291C1055.73 381.678 1057.04 379.783 1058.97 378.715C1054.19 393.028 1048.95 407.846 1038.17 418.41C1044.58 417.724 1049.82 413.209 1054.62 408.874C1049.52 424.76 1040.02 439.215 1027.48 450.243C1034.26 447.037 1040.93 443.63 1047.5 440.062C1041.65 451.049 1034.01 461.089 1024.96 469.636C1029.94 464.939 1038.27 462.742 1044.4 459.879C1040.36 465.302 1037.14 471.33 1032.8 476.511C1029.24 480.785 1024.98 484.394 1020.75 488.002C1022.32 486.672 1028.67 486.45 1030.95 485.543C1032.72 484.837 1037.6 481.229 1039.26 482.64C1041.33 484.434 1029.82 496.107 1028.33 498.707C1025.41 503.767 1023.45 510.299 1017.52 512.9C1025.65 509.332 1033.43 504.997 1040.75 499.977C1036.49 516.549 1026.88 531.689 1013.71 542.596C1024.2 537.777 1034.68 532.959 1045.16 528.141C1033.65 538.805 1023.41 550.821 1014.68 563.844H1113.22H1113.2Z" fill="#142A38"/>
<path d="M1491.61 447.42C1482.88 434.377 1472.63 422.361 1461.12 411.717C1471.61 416.535 1482.09 421.353 1492.57 426.172C1479.41 415.265 1469.79 400.125 1465.54 383.553C1472.86 388.573 1480.64 392.908 1488.76 396.476C1484.73 391.658 1480.94 386.86 1476.3 382.767C1474.13 380.832 1472.47 378.977 1471.16 376.296C1470.74 375.429 1469.35 369.381 1468.95 369.22C1474.83 371.78 1481.04 373.655 1487.37 374.784C1479.53 370.671 1472.55 364.926 1466.99 358.031C1463.58 353.797 1460.58 348.636 1461.18 343.213C1467.45 345.894 1476.34 348.475 1481.34 353.213C1472.29 344.665 1464.65 334.625 1458.8 323.638C1465.38 327.206 1472.07 330.613 1478.82 333.819C1466.28 322.811 1456.81 308.336 1451.69 292.45C1456.49 296.765 1461.73 301.301 1468.14 301.986C1457.35 291.422 1452.11 276.605 1447.33 262.291C1449.27 263.38 1450.58 265.254 1452.07 266.867C1453.56 268.48 1455.54 269.972 1457.76 269.831C1449.69 260.275 1444.31 248.501 1442.35 236.164C1440.4 248.501 1435.02 260.275 1426.95 269.831C1429.15 269.992 1431.13 268.5 1432.64 266.867C1434.13 265.254 1435.44 263.359 1437.37 262.291C1432.6 276.605 1427.36 291.422 1416.57 301.986C1422.98 301.301 1428.22 296.785 1433.02 292.45C1427.92 308.336 1418.42 322.791 1405.88 333.819C1412.66 330.613 1419.33 327.206 1425.9 323.638C1420.06 334.625 1412.42 344.665 1403.36 353.213C1408.34 348.515 1416.67 346.318 1422.8 343.455C1418.77 348.878 1415.54 354.906 1411.21 360.087C1407.64 364.361 1403.39 367.97 1399.15 371.578C1400.72 370.248 1407.07 370.026 1409.35 369.119C1411.13 368.413 1416.01 364.805 1417.66 366.216C1419.73 368.01 1408.22 379.683 1406.73 382.283C1403.81 387.343 1401.85 393.875 1395.93 396.476C1404.05 392.908 1411.83 388.573 1419.15 383.553C1414.9 400.125 1405.28 415.265 1392.12 426.172C1402.6 421.353 1413.08 416.535 1423.57 411.717C1412.05 422.382 1401.81 434.397 1393.08 447.42H1491.63H1491.61Z" fill="#142A38"/>
<path d="M1223.88 553.038C1215.15 539.995 1204.91 527.98 1193.4 517.335C1203.88 522.153 1214.37 526.972 1224.85 531.79C1211.68 520.883 1202.07 505.743 1197.81 489.172C1205.13 494.191 1212.91 498.526 1221.04 502.094C1217.01 497.276 1213.22 492.478 1208.58 488.385C1206.4 486.45 1204.75 484.595 1203.44 481.914C1203.02 481.047 1201.62 474.999 1201.22 474.838C1207.11 477.398 1213.32 479.273 1219.65 480.402C1211.8 476.289 1204.83 470.544 1199.27 463.649C1195.86 459.415 1192.85 454.254 1193.46 448.831C1199.73 451.513 1208.62 454.093 1213.62 458.831C1204.57 450.283 1196.93 440.243 1191.08 429.256C1197.65 432.824 1204.35 436.231 1211.1 439.437C1198.56 428.429 1189.08 413.955 1183.96 398.068C1188.76 402.383 1194 406.919 1200.41 407.604C1189.63 397.04 1184.39 382.223 1179.61 367.909C1181.54 368.998 1182.86 370.873 1184.35 372.485C1185.84 374.098 1187.81 375.59 1190.03 375.449C1181.97 365.893 1176.59 354.12 1174.63 341.782C1172.67 354.12 1167.29 365.893 1159.23 375.449C1161.42 375.61 1163.4 374.118 1164.91 372.485C1166.4 370.873 1167.71 368.978 1169.65 367.909C1164.87 382.223 1159.63 397.04 1148.85 407.604C1155.26 406.919 1160.5 402.403 1165.3 398.068C1160.2 413.955 1150.7 428.409 1138.16 439.437C1144.93 436.231 1151.61 432.824 1158.18 429.256C1152.33 440.243 1144.69 450.283 1135.64 458.831C1140.62 454.133 1148.95 451.936 1155.07 449.073C1151.04 454.496 1147.82 460.524 1143.48 465.705C1139.91 469.979 1135.66 473.588 1131.43 477.196C1133 475.866 1139.35 475.644 1141.63 474.737C1143.4 474.031 1148.28 470.423 1149.93 471.834C1152.01 473.628 1140.5 485.301 1139.01 487.901C1136.08 492.962 1134.13 499.493 1128.2 502.094C1136.33 498.526 1144.11 494.191 1151.43 489.172C1147.17 505.743 1137.56 520.883 1124.39 531.79C1134.87 526.972 1145.36 522.153 1155.84 517.335C1144.33 528 1134.09 540.015 1125.36 553.038H1223.9H1223.88Z" fill="#142A38"/>
<path d="M1340.59 472.761C1331.86 459.718 1321.62 447.702 1310.1 437.058C1320.59 441.876 1331.07 446.694 1341.55 451.513C1328.39 440.606 1318.77 425.466 1314.52 408.894C1321.84 413.914 1329.62 418.249 1337.74 421.817C1333.71 416.999 1329.92 412.201 1325.28 408.108C1323.11 406.173 1321.45 404.318 1320.14 401.637C1319.72 400.77 1318.33 394.722 1317.93 394.561C1323.81 397.121 1330.02 398.996 1336.35 400.125C1328.51 396.012 1321.54 390.267 1315.97 383.372C1312.56 379.138 1309.56 373.977 1310.16 368.554C1316.43 371.236 1325.33 373.816 1330.32 378.554C1321.27 370.006 1313.63 359.966 1307.79 348.979C1314.36 352.547 1321.05 355.954 1327.8 359.16C1315.27 348.152 1305.79 333.678 1300.67 317.791C1305.47 322.106 1310.71 326.642 1317.12 327.327C1306.33 316.763 1301.09 301.946 1296.31 287.632C1298.25 288.721 1299.56 290.596 1301.05 292.208C1302.54 293.821 1304.52 295.313 1306.74 295.172C1298.67 285.616 1293.29 273.843 1291.34 261.505C1289.38 273.843 1284 285.616 1275.93 295.172C1278.13 295.333 1280.11 293.841 1281.62 292.208C1283.11 290.596 1284.42 288.701 1286.36 287.632C1281.58 301.946 1276.34 316.763 1265.55 327.327C1271.96 326.642 1277.2 322.126 1282 317.791C1276.9 333.678 1267.41 348.132 1254.87 359.16C1261.64 355.954 1268.31 352.547 1274.88 348.979C1269.04 359.966 1261.4 370.006 1252.35 378.554C1257.33 373.856 1265.65 371.659 1271.78 368.796C1267.75 374.219 1264.52 380.247 1260.19 385.428C1256.62 389.702 1252.37 393.311 1248.13 396.919C1249.7 395.589 1256.06 395.367 1258.33 394.46C1260.11 393.754 1264.99 390.146 1266.64 391.557C1268.72 393.351 1257.2 405.024 1255.71 407.624C1252.79 412.685 1250.83 419.216 1244.91 421.817C1253.03 418.249 1260.81 413.914 1268.13 408.894C1263.88 425.466 1254.26 440.606 1241.1 451.513C1251.58 446.694 1262.06 441.876 1272.55 437.058C1261.03 447.723 1250.79 459.738 1242.06 472.761H1340.61H1340.59Z" fill="#142A38"/>
<path d="M1423.83 422.442C1413.4 406.858 1401.15 392.504 1387.38 379.763C1399.92 385.529 1412.44 391.275 1424.98 397.04C1409.23 383.997 1397.74 365.893 1392.66 346.096C1401.41 352.104 1410.7 357.285 1420.42 361.559C1415.6 355.793 1411.07 350.068 1405.52 345.169C1402.92 342.85 1400.95 340.633 1399.37 337.427C1398.87 336.399 1397.22 329.162 1396.73 328.96C1403.79 332.024 1411.19 334.262 1418.75 335.613C1409.37 330.694 1401.03 323.819 1394.39 315.574C1390.3 310.493 1386.73 304.345 1387.46 297.873C1394.94 301.099 1405.58 304.183 1411.55 309.808C1400.74 299.587 1391.59 287.592 1384.62 274.447C1392.48 278.721 1400.46 282.794 1408.55 286.624C1393.55 273.46 1382.22 256.182 1376.11 237.172C1381.83 242.333 1388.1 247.756 1395.76 248.562C1382.88 235.942 1376.61 218.221 1370.89 201.125C1373.19 202.416 1374.76 204.674 1376.55 206.609C1378.35 208.544 1380.71 210.318 1383.35 210.137C1373.71 198.726 1367.26 184.635 1364.94 169.898C1362.6 184.655 1356.17 198.726 1346.53 210.137C1349.17 210.318 1351.53 208.544 1353.33 206.609C1355.12 204.674 1356.69 202.416 1358.99 201.125C1353.27 218.221 1347 235.962 1334.12 248.562C1341.78 247.756 1348.05 242.333 1353.77 237.172C1347.66 256.162 1336.33 273.46 1321.33 286.624C1329.42 282.794 1337.4 278.721 1345.26 274.447C1338.27 287.592 1329.14 299.587 1318.33 309.808C1324.28 304.183 1334.24 301.563 1341.55 298.135C1336.72 304.627 1332.89 311.824 1327.68 318.033C1323.43 323.134 1318.33 327.468 1313.29 331.762C1315.16 330.17 1322.75 329.908 1325.49 328.819C1327.62 327.972 1333.45 323.678 1335.41 325.351C1337.91 327.488 1324.14 341.459 1322.34 344.564C1318.85 350.632 1316.5 358.414 1309.44 361.518C1319.14 357.245 1328.45 352.063 1337.2 346.056C1332.12 365.853 1320.63 383.957 1304.88 397C1317.42 391.234 1329.94 385.489 1342.48 379.723C1328.73 392.464 1316.48 406.818 1306.03 422.402H1423.83V422.442Z" fill="#142A38"/>
<path d="M217.513 556.083C208.784 543.039 198.543 531.024 187.031 520.379C197.515 525.197 207.998 530.016 218.481 534.834C205.317 523.927 195.7 508.787 191.446 492.216C198.765 497.236 206.546 501.57 214.671 505.138C210.639 500.32 206.849 495.522 202.212 491.429C200.035 489.494 198.381 487.639 197.071 484.958C196.648 484.091 195.257 478.043 194.853 477.882C200.74 480.442 206.949 482.317 213.28 483.446C205.437 479.333 198.462 473.588 192.898 466.693C189.491 462.46 186.487 457.299 187.092 451.876C193.362 454.557 202.252 457.137 207.252 461.875C198.2 453.327 190.559 443.287 184.713 432.3C191.285 435.869 197.978 439.276 204.732 442.481C192.192 431.474 182.717 416.999 177.597 401.113C182.395 405.427 187.636 409.963 194.047 410.648C183.261 400.085 178.02 385.267 173.242 370.953C175.177 372.042 176.488 373.917 177.98 375.53C179.471 377.142 181.447 378.634 183.665 378.493C175.601 368.937 170.218 357.164 168.262 344.826C166.307 357.164 160.924 368.937 152.86 378.493C155.058 378.654 157.033 377.163 158.545 375.53C160.037 373.917 161.348 372.022 163.283 370.953C158.505 385.267 153.263 400.085 142.478 410.648C148.889 409.963 154.13 405.447 158.928 401.113C153.828 416.999 144.333 431.453 131.793 442.481C138.567 439.276 145.24 435.869 151.812 432.3C145.965 443.287 138.325 453.327 129.273 461.875C134.253 457.178 142.579 454.98 148.707 452.117C144.675 457.54 141.45 463.568 137.115 468.749C133.547 473.023 129.293 476.632 125.06 480.241C126.632 478.91 132.982 478.688 135.261 477.781C137.035 477.076 141.913 473.467 143.566 474.878C145.643 476.672 134.132 488.345 132.64 490.946C129.716 496.006 127.761 502.538 121.834 505.138C129.958 501.57 137.74 497.236 145.058 492.216C140.804 508.787 131.188 523.927 118.024 534.834C128.507 530.016 138.99 525.197 149.473 520.379C137.962 531.044 127.721 543.059 118.991 556.083H217.533H217.513Z" fill="#142A38"/>
<path d="M370.508 578.4C361.778 565.356 351.537 553.341 340.026 542.696C350.509 547.515 360.992 552.333 371.475 557.151C358.311 546.245 348.695 531.104 344.441 514.533C351.759 519.553 359.541 523.887 367.665 527.455C363.633 522.637 359.843 517.839 355.206 513.747C353.029 511.811 351.376 509.957 350.065 507.275C349.642 506.408 348.251 500.36 347.848 500.199C353.735 502.759 359.944 504.634 366.274 505.763C358.432 501.651 351.456 495.905 345.892 489.01C342.485 484.777 339.481 479.616 340.086 474.193C346.356 476.874 355.247 479.454 360.246 484.192C351.194 475.644 343.554 465.605 337.707 454.617C344.279 458.186 350.973 461.593 357.726 464.798C345.187 453.791 335.711 439.316 330.591 423.43C335.389 427.744 340.631 432.28 347.041 432.965C336.256 422.402 331.014 407.584 326.236 393.27C328.172 394.359 329.482 396.234 330.974 397.847C332.466 399.46 334.441 400.951 336.659 400.81C328.595 391.254 323.212 379.481 321.257 367.143C319.301 379.481 313.919 391.254 305.855 400.81C308.052 400.972 310.028 399.48 311.54 397.847C313.052 396.214 314.342 394.339 316.277 393.27C311.499 407.584 306.258 422.402 295.472 432.965C301.883 432.28 307.125 427.764 311.923 423.43C306.822 439.316 297.327 453.771 284.787 464.798C291.561 461.593 298.234 458.186 304.806 454.617C298.96 465.605 291.319 475.644 282.267 484.192C287.247 479.495 295.573 477.297 301.702 474.435C297.67 479.858 294.444 485.885 290.11 491.067C286.541 495.341 282.287 498.949 278.054 502.558C279.626 501.227 285.977 501.005 288.255 500.098C290.029 499.393 294.908 495.784 296.561 497.195C298.637 498.989 287.126 510.662 285.634 513.263C282.711 518.323 280.755 524.855 274.828 527.455C282.953 523.887 290.735 519.553 298.053 514.533C293.799 531.104 284.183 546.245 271.018 557.151C281.501 552.333 291.984 547.515 302.468 542.696C290.956 553.361 280.715 565.376 271.986 578.4H370.528H370.508Z" fill="#142A38"/>
<path d="M483.867 605.132C475.138 592.088 464.897 580.073 453.385 569.428C463.869 574.247 474.352 579.065 484.835 583.883C471.671 572.977 462.054 557.837 457.8 541.265C465.119 546.285 472.9 550.619 481.025 554.188C476.993 549.369 473.203 544.571 468.566 540.479C466.389 538.543 464.735 536.689 463.425 534.007C463.002 533.141 461.611 527.093 461.207 526.931C467.094 529.492 473.303 531.366 479.634 532.495C471.791 528.383 464.816 522.637 459.252 515.742C455.845 511.509 452.841 506.348 453.446 500.925C459.716 503.606 468.606 506.187 473.606 510.924C464.554 502.376 456.913 492.337 451.067 481.349C457.639 484.918 464.332 488.325 471.086 491.53C458.546 480.523 449.071 466.048 443.951 450.162C448.749 454.476 453.99 459.012 460.401 459.698C449.615 449.134 444.374 434.316 439.596 420.003C441.531 421.091 442.842 422.966 444.334 424.579C445.825 426.192 447.801 427.684 450.019 427.542C441.955 417.987 436.572 406.213 434.616 393.875C432.661 406.213 427.278 417.987 419.214 427.542C421.412 427.704 423.387 426.212 424.899 424.579C426.391 422.966 427.702 421.071 429.637 420.003C424.859 434.316 419.617 449.134 408.832 459.698C415.243 459.012 420.484 454.496 425.282 450.162C420.182 466.048 410.687 480.503 398.147 491.53C404.921 488.325 411.594 484.918 418.166 481.349C412.319 492.337 404.679 502.376 395.627 510.924C400.607 506.227 408.933 504.029 415.061 501.167C411.029 506.59 407.804 512.618 403.469 517.799C399.901 522.073 395.647 525.681 391.414 529.29C392.986 527.959 399.336 527.738 401.615 526.83C403.389 526.125 408.267 522.516 409.92 523.927C411.997 525.722 400.486 537.394 398.994 539.995C396.07 545.055 394.115 551.587 388.188 554.188C396.312 550.619 404.094 546.285 411.412 541.265C407.158 557.837 397.542 572.977 384.378 583.883C394.861 579.065 405.344 574.247 415.827 569.428C404.316 580.093 394.075 592.109 385.345 605.132H483.887H483.867Z" fill="#142A38"/>
<path d="M-28.8418 458.206H1693.27L1647.54 952.67H-144.822L-28.8418 458.206Z" fill="#D9EDE2"/>
<mask id="mask3_5_5903" style="mask-type:luminance" maskUnits="userSpaceOnUse" x="-145" y="458" width="1839" height="495">
<path d="M-28.8418 458.206H1693.27L1647.54 952.67H-144.822L-28.8418 458.206Z" fill="white"/>
</mask>
<g mask="url(#mask3_5_5903)">
<path opacity="0.66" d="M-137.141 499.332C-95.5915 518.746 -46.7236 512.214 -2.45227 500.219C41.799 488.224 85.5058 471.028 131.35 470.141C173.545 469.314 215.215 482.438 257.35 480.321C284.162 478.991 310.25 471.511 336.82 467.62C366.073 463.326 395.768 463.367 425.323 463.73C694.318 467.016 964.885 495.764 1231.32 458.488C815.459 351.196 378.189 386.154 -50.6548 362.446C-82.3262 360.692 -114.502 358.656 -145.447 365.611C-176.393 372.566 -206.572 389.924 -221.249 418.047C-226.631 428.349 -223.406 447.057 -212.257 443.751C-209.435 466.33 -202.681 468.568 -183.832 481.309C-164.982 494.05 -157.725 489.696 -137.121 499.332H-137.141Z" fill="white"/>
</g>
<path d="M650.651 554.671C649.643 550.72 649.26 546.769 649.3 542.979C649.341 539.168 649.784 535.499 650.47 531.971C651.861 524.915 654.24 518.383 656.921 512.214C659.582 506.066 662.465 500.179 664.965 494.131C667.445 488.103 669.581 481.853 670.529 475.201C670.952 481.894 670.166 488.668 668.956 495.26C667.747 501.852 666.134 508.303 664.864 514.613C664.219 517.779 663.695 520.863 663.352 523.948C663.009 527.032 662.828 530.076 662.868 533.04C662.949 538.967 663.997 544.612 666.295 549.087L650.651 554.651V554.671Z" fill="#2D3F2E"/>
<path d="M660.691 556.869C659.038 553.784 657.889 550.438 657.223 547.011C656.558 543.583 656.336 540.076 656.437 536.588C656.659 529.592 658.13 522.718 660.106 516.025C662.102 509.332 664.541 502.759 666.578 496.026C668.614 489.292 670.247 482.357 670.529 475.221" stroke="#2D3133" stroke-width="0.54432" stroke-miterlimit="10"/>
<path d="M670.408 544.995C671.557 536.165 674.178 528 677.182 520.339C680.206 512.658 683.673 505.421 686.979 498.223C690.286 491.026 693.471 483.829 695.85 476.33C698.249 468.85 699.821 460.988 699.741 452.863C701.192 460.827 701.011 469.112 699.902 477.197C698.793 485.281 696.838 493.204 694.802 500.945C692.765 508.686 690.649 516.287 689.116 523.806C687.584 531.306 686.637 538.705 686.959 545.741L670.368 545.015L670.408 544.995Z" fill="#2D3F2E"/>
<path d="M678.734 551.97C678.351 543.483 679.702 535.015 681.859 526.851C684.016 518.666 686.939 510.702 689.822 502.719C692.685 494.736 695.548 486.712 697.543 478.406C699.539 470.12 700.608 461.492 699.761 452.884" stroke="#2D3133" stroke-width="0.54432" stroke-miterlimit="10"/>
<path d="M646.135 549.45C647.486 544.309 647.143 537.999 645.813 531.669C644.502 525.318 642.144 518.726 640.067 511.892C639.019 508.485 638.071 504.977 637.346 501.429C636.983 499.655 636.7 497.84 636.499 496.046C636.317 494.232 636.176 492.437 636.176 490.623C636.176 488.809 636.237 487.014 636.459 485.24C636.66 483.466 637.003 481.712 637.446 479.999C637.87 478.285 638.515 476.652 639.241 475.08C639.966 473.507 640.874 472.056 641.861 470.685C641.176 472.237 640.611 473.81 640.228 475.422C639.866 477.055 639.583 478.668 639.503 480.341C639.402 481.995 639.422 483.648 639.563 485.281C639.684 486.914 639.946 488.547 640.289 490.159C641.62 496.631 644.482 502.618 647.708 508.646C650.933 514.694 654.603 520.742 657.606 527.717C659.098 531.185 660.388 534.854 661.316 538.765C661.78 540.721 662.122 542.737 662.384 544.813C662.606 546.89 662.707 549.027 662.626 551.204L646.115 549.45H646.135Z" fill="#697F69"/>
<path d="M653.252 556.022C653.796 554.228 654.179 552.413 654.421 550.559C654.643 548.704 654.703 546.829 654.663 544.954C654.603 543.079 654.401 541.225 654.139 539.37C653.837 537.515 653.454 535.701 652.99 533.866C651.135 526.589 647.95 519.774 645.047 512.92C642.144 506.086 639.382 499.11 638.414 491.792C638.192 489.978 638.031 488.143 638.011 486.309C638.011 484.474 638.112 482.66 638.374 480.845C638.656 479.051 639.059 477.277 639.624 475.564C640.229 473.85 640.974 472.217 641.882 470.665" stroke="#2D3133" stroke-width="0.54432" stroke-miterlimit="10"/>
<path d="M660.933 538.866C664.28 534.733 666.558 528.846 667.928 522.536C669.34 516.206 669.904 509.211 670.811 502.155C671.255 498.606 671.819 495.038 672.626 491.49C673.029 489.716 673.513 487.962 674.057 486.228C674.642 484.494 675.247 482.801 675.992 481.148C676.718 479.495 677.525 477.882 678.472 476.35C679.379 474.818 680.408 473.346 681.516 471.975C682.605 470.584 683.875 469.354 685.165 468.225C686.476 467.096 687.907 466.129 689.359 465.282C688.109 466.411 686.939 467.6 685.911 468.931C684.903 470.261 683.976 471.632 683.23 473.104C682.464 474.556 681.799 476.068 681.274 477.64C680.71 479.192 680.287 480.785 679.924 482.398C678.472 488.849 678.634 495.482 679.097 502.296C679.561 509.13 680.428 516.146 680.307 523.746C680.246 527.536 679.924 531.407 679.158 535.358C678.795 537.334 678.271 539.309 677.646 541.305C676.98 543.301 676.214 545.277 675.247 547.232L660.913 538.846L660.933 538.866Z" fill="#697F69"/>
<path d="M664.743 547.777C665.973 546.365 667.082 544.853 668.049 543.261C669.017 541.648 669.844 539.975 670.569 538.261C671.275 536.527 671.86 534.753 672.384 532.959C672.868 531.145 673.271 529.33 673.593 527.476C674.884 520.077 674.783 512.557 674.944 505.118C675.105 497.699 675.448 490.2 677.565 483.144C678.109 481.39 678.714 479.656 679.46 477.983C680.206 476.309 681.052 474.697 682.02 473.144C683.008 471.612 684.097 470.161 685.326 468.83C686.576 467.52 687.927 466.33 689.379 465.282" stroke="#2D3133" stroke-width="0.54432" stroke-miterlimit="10"/>
<path d="M661.82 541.769C662.465 540.156 662.969 538.422 663.372 536.628C663.735 534.814 664.038 532.959 664.179 531.024C664.32 529.088 664.381 527.113 664.3 525.117C664.239 523.121 664.078 521.085 663.816 519.049C662.808 510.884 660.349 502.417 658.131 493.768C657.022 489.434 655.974 485.039 655.208 480.563C654.825 478.325 654.522 476.068 654.321 473.789C654.139 471.511 654.018 469.253 654.059 466.996C654.099 464.738 654.22 462.48 654.542 460.242C654.663 459.133 654.885 458.024 655.087 456.916C655.188 456.371 655.329 455.827 655.45 455.283C655.571 454.738 655.712 454.194 655.873 453.67C656.437 451.513 657.284 449.456 658.212 447.481C659.159 445.505 660.328 443.65 661.598 441.917C660.631 443.832 659.784 445.807 659.199 447.844C658.615 449.88 658.151 451.956 657.929 454.073C657.849 454.597 657.808 455.121 657.768 455.645C657.728 456.17 657.687 456.694 657.667 457.218C657.667 458.286 657.607 459.335 657.667 460.383C657.708 462.5 657.929 464.597 658.212 466.693C659.401 475.08 662.526 483.003 665.973 491.026C669.421 499.05 673.311 507.174 675.972 516.367C676.638 518.666 677.222 520.984 677.666 523.383C678.15 525.762 678.472 528.221 678.694 530.701C678.916 533.201 678.936 535.741 678.835 538.322C678.674 540.902 678.372 543.543 677.807 546.164L661.8 541.749L661.82 541.769Z" fill="#465E48"/>
<path d="M667.183 550.821C668.251 548.724 669.138 546.527 669.823 544.249C670.469 541.971 670.912 539.652 671.194 537.293C671.456 534.935 671.537 532.576 671.497 530.197C671.436 527.838 671.215 525.48 670.912 523.121C670.59 520.782 670.146 518.444 669.622 516.146C669.078 513.847 668.453 511.549 667.787 509.291C666.416 504.755 664.844 500.3 663.292 495.845C660.207 486.954 657.143 477.963 656.296 468.629C656.095 466.31 655.994 463.972 656.054 461.653C656.135 459.335 656.336 457.016 656.74 454.738C657.163 452.46 657.748 450.222 658.534 448.065C659.36 445.908 660.369 443.852 661.598 441.917" stroke="#2D3133" stroke-width="0.54432" stroke-miterlimit="10"/>
<path d="M650.087 521.105C647.97 515.843 646.881 510.501 646.156 505.3C645.45 500.098 645.107 494.998 644.704 489.958C644.301 484.938 643.817 479.958 642.809 475.039C641.801 470.141 640.229 465.282 637.668 460.806C640.954 464.778 643.434 469.435 645.329 474.253C647.244 479.092 648.615 484.091 649.905 489.01C651.196 493.949 652.385 498.828 653.877 503.465C655.369 508.102 657.143 512.497 659.522 516.307L650.087 521.065V521.105Z" fill="#2D3F2E"/>
<path d="M656.881 522.375C654.018 517.779 652.143 512.658 650.792 507.457C649.442 502.235 648.575 496.913 647.688 491.571C646.801 486.248 645.873 480.906 644.402 475.664C642.93 470.443 640.833 465.322 637.688 460.806" stroke="#2D3133" stroke-width="0.34272" stroke-miterlimit="10"/>
<path d="M642.91 520.661C643.474 517.315 642.91 513.343 641.7 509.412C640.511 505.461 638.636 501.409 636.942 497.195C636.096 495.099 635.289 492.921 634.624 490.724C634.301 489.615 634.019 488.486 633.777 487.357C633.555 486.228 633.374 485.079 633.273 483.93C633.172 482.781 633.112 481.632 633.152 480.503C633.172 479.374 633.293 478.225 633.495 477.136C633.677 476.027 633.999 474.959 634.362 473.91C634.745 472.882 635.229 471.894 635.773 470.967C635.43 471.975 635.148 473.023 635.007 474.072C634.866 475.12 634.785 476.168 634.826 477.217C634.846 478.265 634.967 479.313 635.148 480.341C635.33 481.37 635.572 482.398 635.874 483.406C637.084 487.438 639.241 491.067 641.62 494.716C643.998 498.365 646.68 501.993 648.978 506.247C650.127 508.364 651.155 510.622 651.962 513.041C652.365 514.251 652.708 515.521 652.97 516.811C653.232 518.121 653.413 519.472 653.494 520.843L642.93 520.661H642.91Z" fill="#697F69"/>
<path d="M647.809 524.411C648.05 523.242 648.191 522.073 648.252 520.883C648.292 519.694 648.232 518.504 648.091 517.315C647.95 516.125 647.708 514.956 647.446 513.807C647.163 512.658 646.801 511.509 646.417 510.38C644.825 505.884 642.426 501.731 640.188 497.558C637.95 493.385 635.813 489.131 634.785 484.535C634.543 483.386 634.342 482.237 634.221 481.087C634.12 479.918 634.079 478.769 634.14 477.6C634.221 476.451 634.362 475.301 634.624 474.173C634.906 473.064 635.289 471.975 635.773 470.947" stroke="#2D3133" stroke-width="0.34272" stroke-miterlimit="10"/>
<path d="M644.321 521.992C644.18 520.903 643.918 519.774 643.595 518.666C643.232 517.557 642.809 516.408 642.285 515.299C641.761 514.19 641.176 513.061 640.511 511.993C639.845 510.904 639.12 509.815 638.354 508.767C635.249 504.554 631.257 500.622 627.326 496.51C625.35 494.453 623.415 492.337 621.58 490.079C620.673 488.97 619.806 487.801 618.98 486.611C618.173 485.402 617.387 484.192 616.722 482.922C616.036 481.652 615.411 480.362 614.887 479.031C614.605 478.366 614.383 477.701 614.162 477.015C614.041 476.672 613.96 476.33 613.859 475.987C613.758 475.644 613.657 475.301 613.597 474.959C613.254 473.588 613.073 472.177 612.952 470.786C612.851 469.395 612.952 468.004 613.093 466.653C613.153 468.024 613.295 469.374 613.597 470.685C613.92 471.995 614.303 473.286 614.827 474.535C614.948 474.858 615.089 475.16 615.23 475.463C615.371 475.765 615.512 476.068 615.674 476.37C615.996 476.955 616.298 477.559 616.661 478.124C617.347 479.273 618.113 480.382 618.939 481.45C622.205 485.744 626.419 489.151 630.834 492.538C635.249 495.925 639.946 499.211 644.281 503.485C645.369 504.554 646.417 505.662 647.405 506.852C648.413 508.021 649.361 509.291 650.268 510.602C651.175 511.912 651.982 513.323 652.728 514.795C653.453 516.287 654.098 517.839 654.602 519.472L644.341 522.012L644.321 521.992Z" fill="#465E48"/>
<path d="M650.107 525.339C650.046 523.847 649.845 522.335 649.522 520.863C649.179 519.391 648.696 517.96 648.131 516.569C647.547 515.178 646.841 513.847 646.095 512.537C645.329 511.247 644.462 509.997 643.555 508.787C642.648 507.598 641.68 506.429 640.652 505.32C639.624 504.211 638.575 503.142 637.487 502.094C635.309 499.997 633.052 498.022 630.814 496.026C626.338 492.054 621.822 488.022 618.456 483.103C617.629 481.874 616.843 480.604 616.137 479.313C615.452 478.003 614.847 476.652 614.363 475.261C613.899 473.87 613.517 472.439 613.275 470.987C613.073 469.536 612.992 468.084 613.053 466.612" stroke="#2D3133" stroke-width="0.34272" stroke-miterlimit="10"/>
<path d="M656.195 522.577C655.046 520.52 654.26 518.363 653.756 516.246C653.252 514.109 653.01 512.013 652.929 509.957C652.808 505.844 653.353 501.913 654.22 498.203C655.087 494.494 656.175 490.986 657.163 487.438C658.131 483.91 659.018 480.341 659.36 476.592C659.885 480.301 659.885 484.071 659.764 487.781C659.643 491.49 659.421 495.159 659.461 498.707C659.461 500.481 659.582 502.175 659.784 503.868C659.985 505.541 660.308 507.174 660.751 508.727C661.618 511.831 662.989 514.593 664.844 516.509L656.175 522.557L656.195 522.577Z" fill="#465E48"/>
<path d="M662.465 521.911C661.114 520.5 660.005 518.867 659.159 517.113C658.312 515.359 657.707 513.505 657.284 511.589C656.457 507.779 656.377 503.848 656.719 499.977C657.062 496.107 657.768 492.256 658.372 488.385C658.977 484.515 659.461 480.583 659.38 476.612" stroke="#2D3133" stroke-width="0.34272" stroke-miterlimit="10"/>
<path d="M722.098 520.077C695.951 510.622 706.051 469.012 714.276 460.786C722.501 452.561 719.881 502.901 719.881 502.901C719.881 502.901 721.776 460.927 735.404 455.807C749.052 450.686 731.594 503.505 731.594 503.505C731.594 503.505 741.472 465.141 756.048 463.851C770.623 462.56 732.682 523.927 722.078 520.077H722.098Z" fill="#759C8D"/>
<g style="mix-blend-mode:multiply" opacity="0.35">
<path d="M722.018 519.129C706.353 513.464 708.49 482.297 713.43 477.378C718.369 472.459 720.687 508.848 720.687 508.848C720.687 508.848 725.203 477.438 733.388 474.374C741.573 471.31 727.723 509.211 727.723 509.211C727.723 509.211 739.98 481.208 748.73 480.442C757.479 479.676 728.368 521.448 722.018 519.149V519.129Z" fill="#759C8D"/>
</g>
<path d="M1831.74 360.994C1637.36 282.733 1388.2 303.962 1178.38 385.852C866.383 507.618 713.933 468.87 582.43 517.96C446.995 568.521 411.412 552.051 389.196 568.521C366.98 584.992 687.04 593.237 977.425 597.35C1267.79 601.463 1134.51 617.954 1067.86 661.197C1001.21 704.44 1301.11 729.156 1467.74 720.911C1634.36 712.665 1678.77 728.168 1784.31 722.483C1889.83 716.798 1967.58 661.177 1967.58 661.177L1831.77 360.974L1831.74 360.994Z" fill="#DFB800"/>
<mask id="mask4_5_5903" style="mask-type:luminance" maskUnits="userSpaceOnUse" x="388" y="312" width="1580" height="412">
<path d="M1831.74 360.994C1637.36 282.733 1388.2 303.962 1178.38 385.852C866.383 507.618 713.933 468.87 582.43 517.96C446.995 568.521 411.412 552.051 389.196 568.521C366.98 584.992 687.04 593.237 977.425 597.35C1267.79 601.463 1134.51 617.954 1067.86 661.197C1001.21 704.44 1301.11 729.156 1467.74 720.911C1634.36 712.665 1678.77 728.168 1784.31 722.483C1889.83 716.798 1967.58 661.177 1967.58 661.177L1831.77 360.974L1831.74 360.994Z" fill="white"/>
</mask>
<g mask="url(#mask4_5_5903)">
<path d="M1206.18 497.74C1216.97 498.244 1227.67 500.199 1238.48 500.481C1249.32 500.764 1260.13 499.372 1270.89 498.002C1316.8 492.095 1362.7 486.188 1408.63 480.261C1429.75 477.539 1453.6 473.185 1465.18 455.303C1466.02 453.992 1466.83 452.44 1466.45 450.908C1465.94 448.892 1463.68 447.904 1461.71 447.279C1440.24 440.425 1417.46 439.054 1394.94 438.489C1338.81 437.078 1281.94 440.505 1227.57 455.323C1205.98 461.21 1172.35 468.185 1156.34 485.16C1136.23 506.489 1194.47 497.195 1206.2 497.74H1206.18Z" fill="#C1AE33"/>
<path d="M917.953 526.609C926.098 526.427 934.263 527.334 942.407 526.992C950.592 526.649 958.656 525.036 966.68 523.423C1000.91 516.569 1035.14 509.735 1069.4 502.88C1085.16 499.735 1102.86 495.22 1110.64 481.148C1111.21 480.12 1111.73 478.91 1111.37 477.781C1110.88 476.289 1109.13 475.664 1107.62 475.301C1091.11 471.269 1073.89 471.431 1056.92 472.177C1014.62 474.052 972.002 479.596 931.864 493.587C915.937 499.151 890.999 506.146 879.831 519.754C865.799 536.85 909.143 526.81 917.993 526.629L917.953 526.609Z" fill="#C1AE33"/>
<g style="mix-blend-mode:overlay" opacity="0.41">
<path d="M451.934 547.051C513.604 566.404 592.349 553.099 653.474 536.81C660.409 534.955 668.493 531.669 669.763 524.593C670.227 522.012 669.703 519.109 671.194 516.932C672.545 514.976 675.085 514.311 677.404 513.807C702.503 508.263 724.437 504.231 749.818 503.989C781.409 503.687 811.186 506.549 842.494 500.824C900.555 490.2 954.805 465.826 1011.94 451.654C1100.88 429.599 1193.88 424.377 1283.23 400.286C1316.66 391.275 1350.22 381.255 1384.82 379.884C1431.99 378.009 1479.23 392.343 1526.06 386.255C1559.18 381.941 1590.05 367.667 1621.09 355.309C1688.08 328.678 1783.14 327.871 1842.41 289.184C1919.32 238.986 1834.25 205.762 1786.53 191.166C1698.12 164.152 1605.89 151.088 1513.6 148.891C1328.53 144.516 1144.45 182.538 968.554 237.474C898.176 259.448 827.636 284.568 767.096 326.642C699.62 373.534 645.349 440.909 569.528 472.58C542.654 483.789 509.572 494.333 501.891 522.415C493.605 530.056 485.985 529.391 476.167 531.548C472.094 532.455 452.317 547.132 451.955 547.011L451.934 547.051Z" fill="white"/>
</g>
</g>
<path d="M1162.55 487.861C1194.99 399.097 1233.62 406.878 1233.21 439.336C1232.79 471.794 1278.31 388.896 1315.02 387.626C1351.74 386.356 1344.54 430.486 1344.54 430.486C1344.54 430.486 1374.21 382.263 1406.57 386.799C1438.93 391.335 1402.74 449.658 1402.74 449.658C1402.74 449.658 1286.72 471.935 1162.55 487.841V487.861Z" fill="#94924F"/>
<mask id="mask5_5_5903" style="mask-type:luminance" maskUnits="userSpaceOnUse" x="1162" y="386" width="259" height="102">
<path d="M1162.55 487.861C1194.99 399.097 1233.62 406.878 1233.21 439.336C1232.79 471.794 1278.31 388.896 1315.02 387.626C1351.74 386.356 1344.54 430.486 1344.54 430.486C1344.54 430.486 1374.21 382.263 1406.57 386.799C1438.93 391.335 1402.74 449.658 1402.74 449.658C1402.74 449.658 1286.72 471.935 1162.55 487.841V487.861Z" fill="white"/>
</mask>
<g mask="url(#mask5_5_5903)">
<g style="mix-blend-mode:multiply" opacity="0.16">
<path d="M1323.61 451.049C1320.49 451.271 1317.22 451.331 1314.42 449.94C1311.62 448.549 1309.5 445.283 1310.47 442.32C1283.13 455.464 1252.33 461.331 1222.07 459.194C1209.73 474.334 1184.13 475.947 1169.97 462.48C1168.06 460.665 1165.98 458.488 1163.36 458.649C1161.91 458.73 1160.62 459.556 1159.43 460.383C1145.8 469.737 1135.1 483.285 1129.15 498.727C1126.35 505.985 1124.75 514.714 1129.19 521.105C1134.23 528.383 1144.51 529.229 1153.36 528.907C1200.21 527.193 1245.47 512.335 1291.72 504.634C1325.47 499.01 1359.72 497.215 1393.89 495.703C1408.71 495.038 1424.65 494.05 1436.21 484.736C1449.55 473.991 1453.18 455.283 1453.87 438.147C1454.31 426.877 1453.75 415.084 1448.4 405.145C1443.52 396.073 1429.86 385.065 1419.33 391.355C1410.4 396.698 1403.39 412.846 1395.1 420.285C1375.48 437.945 1350 449.235 1323.61 451.049Z" fill="#94924F"/>
</g>
</g>
<path d="M886.725 519.674C893.7 511.509 900.998 503.384 910.09 497.659C919.183 491.933 930.432 488.829 940.814 491.55C945.33 492.74 949.544 494.958 954.12 495.824C967.567 498.344 979.925 488.93 991.275 481.289C1003.37 473.144 1016.45 466.471 1030.16 461.472C1036.61 459.113 1044.92 457.581 1049.42 462.742C1051.41 465.04 1052.16 468.225 1054.21 470.443C1057.92 474.475 1064.44 473.991 1069.62 472.217C1074.8 470.443 1079.94 467.681 1085.38 468.145C1091.93 468.709 1097.6 474.556 1097.94 481.108L886.705 519.674H886.725Z" fill="#94924F"/>
<mask id="mask6_5_5903" style="mask-type:luminance" maskUnits="userSpaceOnUse" x="886" y="459" width="212" height="61">
<path d="M886.725 519.674C893.7 511.509 900.998 503.384 910.09 497.659C919.183 491.933 930.432 488.829 940.814 491.55C945.33 492.74 949.544 494.958 954.12 495.824C967.567 498.344 979.925 488.93 991.275 481.289C1003.37 473.144 1016.45 466.471 1030.16 461.472C1036.61 459.113 1044.92 457.581 1049.42 462.742C1051.41 465.04 1052.16 468.225 1054.21 470.443C1057.92 474.475 1064.44 473.991 1069.62 472.217C1074.8 470.443 1079.94 467.681 1085.38 468.145C1091.93 468.709 1097.6 474.556 1097.94 481.108L886.705 519.674H886.725Z" fill="white"/>
</mask>
<g mask="url(#mask6_5_5903)">
<g style="mix-blend-mode:multiply" opacity="0.16">
<path d="M1044.96 481.733C1042.32 480.684 1039.78 479.233 1036.94 478.971C1034.42 478.749 1031.94 479.515 1029.52 480.241C1011.92 485.603 994.178 490.462 976.437 495.32C965.551 498.304 954.644 501.288 943.758 504.251C936.117 506.348 928.335 508.445 920.432 508.223C916.844 508.122 913.175 507.497 910.05 505.743C907.893 504.533 906.018 502.8 903.8 501.691C897.027 498.344 888.922 501.55 882.39 505.38C873.822 510.42 865.315 517.416 863.299 527.153C862.735 529.895 862.734 532.838 864.005 535.338C866.404 540.055 872.31 541.608 877.572 542.132C891.221 543.483 904.929 541.346 918.517 539.511C962.647 533.544 1007.32 530.782 1051.8 533.241C1061.98 533.806 1072.22 534.632 1082.32 533.362C1092.44 532.092 1102.58 528.504 1109.88 521.387C1118.3 513.162 1121.95 501.328 1125.3 490.038C1126.17 487.115 1127.03 484.031 1126.45 481.027C1125.78 477.64 1123.32 474.878 1120.6 472.741C1110.94 465.141 1094.82 463.125 1084.15 469.757C1071.51 477.6 1061.23 488.244 1044.96 481.712V481.733Z" fill="#94924F"/>
</g>
</g>
<path d="M1403.24 353.676C1410.22 345.511 1417.52 337.387 1426.61 331.661C1435.7 325.936 1446.95 322.831 1457.33 325.553C1461.85 326.742 1466.06 328.96 1470.64 329.827C1484.09 332.347 1496.44 322.932 1507.79 315.292C1519.89 307.147 1532.97 300.474 1546.68 295.474C1553.13 293.116 1561.44 291.563 1565.94 296.744C1567.93 299.043 1568.68 302.228 1570.73 304.445C1574.44 308.477 1580.95 307.994 1586.14 306.22C1591.32 304.466 1596.46 301.684 1601.9 302.147C1608.45 302.712 1614.12 308.558 1614.46 315.11L1403.22 353.676H1403.24Z" fill="#94924F"/>
<mask id="mask7_5_5903" style="mask-type:luminance" maskUnits="userSpaceOnUse" x="1403" y="293" width="212" height="61">
<path d="M1403.24 353.676C1410.22 345.511 1417.52 337.387 1426.61 331.661C1435.7 325.936 1446.95 322.831 1457.33 325.553C1461.85 326.742 1466.06 328.96 1470.64 329.827C1484.09 332.347 1496.44 322.932 1507.79 315.292C1519.89 307.147 1532.97 300.474 1546.68 295.474C1553.13 293.116 1561.44 291.563 1565.94 296.744C1567.93 299.043 1568.68 302.228 1570.73 304.445C1574.44 308.477 1580.95 307.994 1586.14 306.22C1591.32 304.466 1596.46 301.684 1601.9 302.147C1608.45 302.712 1614.12 308.558 1614.46 315.11L1403.22 353.676H1403.24Z" fill="white"/>
</mask>
<g mask="url(#mask7_5_5903)">
<g style="mix-blend-mode:multiply" opacity="0.16">
<path d="M1561.5 315.735C1558.86 314.687 1556.32 313.235 1553.48 312.973C1550.96 312.751 1548.48 313.517 1546.06 314.243C1528.46 319.606 1510.72 324.464 1492.98 329.323C1482.09 332.307 1471.2 335.29 1460.3 338.254C1452.66 340.35 1444.87 342.447 1436.97 342.225C1433.38 342.125 1429.71 341.5 1426.59 339.746C1424.43 338.536 1422.56 336.802 1420.34 335.693C1413.57 332.347 1405.46 335.552 1398.93 339.383C1390.36 344.423 1381.85 351.418 1379.84 361.156C1379.27 363.897 1379.27 366.841 1380.54 369.34C1382.94 374.058 1388.85 375.61 1394.11 376.134C1407.76 377.485 1421.47 375.348 1435.06 373.514C1479.19 367.546 1523.86 364.784 1568.33 367.244C1578.52 367.808 1588.76 368.635 1598.86 367.365C1608.98 366.095 1619.12 362.506 1626.42 355.39C1634.84 347.165 1638.49 335.331 1641.84 324.041C1642.7 321.118 1643.57 318.033 1642.99 315.029C1642.32 311.643 1639.86 308.881 1637.14 306.744C1627.48 299.143 1611.36 297.127 1600.69 303.76C1588.05 311.602 1577.77 322.247 1561.5 315.715V315.735Z" fill="#94924F"/>
</g>
</g>
<path d="M1412.78 399.943C1419.61 399.943 1457.13 405.79 1457.13 405.79L1484.89 408.532L1553.5 403.794L1507.03 391.537L1412.76 399.943H1412.78Z" fill="#94924F"/>
<path d="M1500.68 358.998L1460.46 364.099L1449.98 380.731L1425.06 385.388L1412.78 399.943H1527.47L1500.68 358.998Z" fill="#CFDBE5"/>
<mask id="mask8_5_5903" style="mask-type:luminance" maskUnits="userSpaceOnUse" x="1412" y="358" width="116" height="42">
<path d="M1500.68 358.998L1460.46 364.099L1449.98 380.731L1425.06 385.388L1412.78 399.943H1527.47L1500.68 358.998Z" fill="white"/>
</mask>
<g mask="url(#mask8_5_5903)">
<g style="mix-blend-mode:multiply" opacity="0.76">
<path d="M1500.68 358.998L1504.27 379.481L1475.82 385.831L1486.04 389.218L1412.78 399.943L1402.82 413.773L1575.96 416.192L1585.07 399.943L1501.85 356.055" fill="#CFDBE5"/>
</g>
<path d="M1492.05 360.087C1490.52 360.289 1465.4 368.776 1465.4 368.776L1454.89 389.198H1409.86L1442.82 352.668L1492.03 360.067" fill="#EFF2F4"/>
</g>
<path d="M840.76 469.334C842.433 468.79 843.905 468.165 845.155 467.439C845.78 467.076 846.344 466.693 846.848 466.29C847.352 465.887 847.856 465.484 848.3 465.06C849.187 464.213 849.872 463.306 850.437 462.379C851.021 461.472 851.485 460.544 851.828 459.617C852.009 459.153 852.15 458.71 852.271 458.266C852.412 457.823 852.533 457.399 852.614 456.996C852.816 456.17 852.936 455.404 852.997 454.758C853.138 453.448 853.118 452.601 853.118 452.601C853.118 452.601 852.231 452.662 850.88 453.025C849.55 453.388 847.695 454.013 846.001 455.202C845.134 455.787 844.268 456.512 843.481 457.359C842.715 458.226 842.05 459.254 841.506 460.403C840.941 461.552 840.598 462.903 840.457 464.375C840.316 465.867 840.377 467.479 840.78 469.294L840.76 469.334Z" fill="#94924F"/>
<path d="M839.933 476.592C842.352 477.882 844.489 478.124 846.304 477.821C848.098 477.499 849.67 476.652 850.9 475.644C852.11 474.616 853.138 473.487 853.783 472.58C854.106 472.116 854.368 471.733 854.529 471.451C854.69 471.169 854.791 471.007 854.791 471.007C854.791 471.007 854.247 470.564 853.299 470.06C852.372 469.556 851.062 469.032 849.57 468.911C848.078 468.79 846.364 469.052 844.63 470.181C842.957 471.33 841.223 473.306 839.893 476.592H839.933Z" fill="#94924F"/>
<path d="M834.692 473.648C832.333 472.237 831.063 470.483 830.519 468.588C829.954 466.693 830.196 464.717 830.7 462.903C831.184 461.089 832.091 459.516 832.797 458.347C833.16 457.782 833.482 457.319 833.704 456.996C833.926 456.674 834.087 456.512 834.087 456.512C834.087 456.512 834.712 456.875 835.478 457.581C836.244 458.286 837.171 459.375 837.796 460.806C838.421 462.238 838.764 463.992 838.341 466.088C837.998 468.225 836.869 470.645 834.692 473.628V473.648Z" fill="#94924F"/>
<path d="M827.414 488.506C824.894 487.377 823.443 485.785 822.697 483.97C821.951 482.156 821.87 480.14 822.213 478.305C822.535 476.451 823.14 474.757 823.765 473.548C824.35 472.338 824.854 471.572 824.854 471.572C824.854 471.572 825.519 471.854 826.366 472.479C827.213 473.104 828.261 474.072 829.027 475.402C829.813 476.753 830.317 478.446 830.196 480.583C830.136 481.652 829.894 482.821 829.45 484.132C829.027 485.442 828.362 486.873 827.434 488.466L827.414 488.506Z" fill="#94924F"/>
<path d="M820.822 521.851L821.285 521.932C824.995 498.143 834.893 475.624 849.912 456.835L849.55 456.553C834.47 475.402 824.531 497.981 820.822 521.871V521.851Z" fill="#2A2B2F"/>
<path d="M835.357 479.112C839.893 476.854 844.893 474.757 850.235 472.923L850.094 472.479C844.732 474.314 839.712 476.41 835.156 478.688L835.357 479.092V479.112Z" fill="#2A2B2F"/>
<path d="M835.035 478.93L835.498 478.87C834.692 473.689 834.228 468.185 834.087 462.036H833.623C833.764 468.205 834.228 473.729 835.035 478.93Z" fill="#2A2B2F"/>
<path d="M828.362 493.708L828.805 493.587L828.745 493.385C828.079 490.805 827.394 488.143 826.89 485.462L826.708 484.494C826.507 483.446 826.285 482.358 826.104 481.269C825.882 479.878 825.66 478.446 825.459 477.015L824.995 477.076C825.196 478.507 825.418 479.938 825.64 481.329C825.801 482.398 826.023 483.507 826.245 484.555L826.426 485.523C826.93 488.204 827.616 490.885 828.281 493.466L828.341 493.667L828.362 493.708Z" fill="#2A2B2F"/>
<path d="M1451.2 511.791C1450.34 507.497 1449.25 503.646 1447.84 500.38C1447.13 498.748 1446.37 497.236 1445.52 495.844C1444.67 494.453 1443.85 493.123 1442.92 491.913C1441.1 489.494 1439.05 487.518 1436.93 485.845C1434.88 484.111 1432.7 482.72 1430.52 481.591C1429.43 481.027 1428.36 480.523 1427.29 480.079C1426.25 479.616 1425.24 479.192 1424.25 478.85C1422.28 478.124 1420.42 477.6 1418.85 477.237C1415.66 476.491 1413.55 476.309 1413.55 476.309C1413.55 476.309 1413.45 478.547 1413.93 481.974C1414.43 485.381 1415.4 490.119 1417.86 494.716C1419.07 497.034 1420.56 499.372 1422.44 501.57C1424.37 503.707 1426.67 505.683 1429.39 507.376C1432.07 509.09 1435.3 510.36 1438.93 511.166C1442.56 511.973 1446.61 512.315 1451.2 511.831V511.791Z" fill="#94924F"/>
<path d="M1468.93 516.004C1472.84 510.38 1474.07 505.179 1473.84 500.602C1473.56 496.066 1471.97 491.913 1469.81 488.587C1467.63 485.281 1465.16 482.418 1463.08 480.543C1462.05 479.596 1461.14 478.85 1460.52 478.346C1459.87 477.842 1459.51 477.559 1459.51 477.559C1459.51 477.559 1458.24 478.789 1456.73 480.946C1455.24 483.103 1453.54 486.168 1452.78 489.817C1452.03 493.486 1452.19 497.78 1454.45 502.396C1456.81 506.852 1461.18 511.771 1468.93 516.004Z" fill="#94924F"/>
</g>
</svg>
